<mxfile host="app.diagrams.net" modified="2024-03-28T14:17:33.513Z" agent="Mozilla/5.0 (Windows NT 10.0; Win64; x64) AppleWebKit/537.36 (KHTML, like Gecko) Chrome/123.0.0.0 Safari/537.36" etag="mtemg1YSqgg5PQgTixl3" version="24.2.0" type="device" pages="3">
  <diagram name="UML Diagram" id="872qMeDaOOM6Bme9XBFL">
    <mxGraphModel dx="1830" dy="2042" grid="1" gridSize="10" guides="1" tooltips="1" connect="1" arrows="1" fold="1" page="1" pageScale="1" pageWidth="850" pageHeight="1100" math="0" shadow="0">
      <root>
        <mxCell id="0" />
        <mxCell id="1" parent="0" />
        <mxCell id="9GU6TQ-uFcXjfUXqjDF7-1" value="" style="rounded=0;whiteSpace=wrap;html=1;hachureGap=4;fontFamily=Architects Daughter;fontSource=https%3A%2F%2Ffonts.googleapis.com%2Fcss%3Ffamily%3DArchitects%2BDaughter;fontSize=20;strokeColor=none;fillColor=#f5f5f5;fontColor=#333333;" parent="1" vertex="1">
          <mxGeometry x="770" y="-160" width="1950" height="1120" as="geometry" />
        </mxCell>
        <mxCell id="-Qh5zQNR_VSR-YZa_GHB-99" value="" style="shape=folder;fontStyle=1;spacingTop=10;tabWidth=175;tabHeight=40;tabPosition=left;html=1;whiteSpace=wrap;fillColor=#fff2cc;strokeColor=#d6b656;sketch=1;curveFitting=1;jiggle=2;" parent="1" vertex="1">
          <mxGeometry x="810" y="80" width="880" height="780" as="geometry" />
        </mxCell>
        <mxCell id="LVVLpY_JYKPzYzUHeONT-1" value="" style="shape=folder;fontStyle=1;spacingTop=10;tabWidth=184;tabHeight=39;tabPosition=left;html=1;whiteSpace=wrap;fillColor=#fff2cc;strokeColor=#d6b656;fontFamily=Architects Daughter;fontSource=https%3A%2F%2Ffonts.googleapis.com%2Fcss%3Ffamily%3DArchitects%2BDaughter;sketch=1;curveFitting=1;jiggle=2;" parent="1" vertex="1">
          <mxGeometry x="1900" y="-19" width="770" height="774" as="geometry" />
        </mxCell>
        <mxCell id="LVVLpY_JYKPzYzUHeONT-8" value="&lt;p style=&quot;margin: 4px 0px 0px; text-align: center; line-height: 80%;&quot;&gt;&lt;font style=&quot;font-size: 9px;&quot;&gt;«interface»&lt;/font&gt;&lt;b&gt;&lt;br&gt;&lt;/b&gt;&lt;/p&gt;&lt;p style=&quot;margin: 4px 0px 0px; text-align: center; line-height: 80%;&quot;&gt;&lt;b&gt;DepartmentService&lt;/b&gt;&lt;/p&gt;&lt;hr size=&quot;1&quot;&gt;&lt;div style=&quot;height:2px;&quot;&gt;&amp;nbsp;+ finAll(): List&amp;lt;DepartmentDto&amp;gt;&lt;br&gt;&amp;nbsp;+ findByCode(int code): DepartmentDto&lt;/div&gt;" style="verticalAlign=top;align=left;overflow=fill;fontSize=12;fontFamily=Architects Daughter;html=1;whiteSpace=wrap;fillColor=#b0e3e6;strokeColor=#0e8088;fontSource=https%3A%2F%2Ffonts.googleapis.com%2Fcss%3Ffamily%3DArchitects%2BDaughter;sketch=1;curveFitting=1;jiggle=2;" parent="1" vertex="1">
          <mxGeometry x="2251.5" y="320" width="221" height="73" as="geometry" />
        </mxCell>
        <mxCell id="LVVLpY_JYKPzYzUHeONT-10" style="edgeStyle=orthogonalEdgeStyle;rounded=0;orthogonalLoop=1;jettySize=auto;html=1;entryX=0.5;entryY=1;entryDx=0;entryDy=0;endArrow=block;endFill=0;dashed=1;dashPattern=1 1;exitX=0.5;exitY=0;exitDx=0;exitDy=0;fontFamily=Architects Daughter;fontSource=https%3A%2F%2Ffonts.googleapis.com%2Fcss%3Ffamily%3DArchitects%2BDaughter;sketch=1;curveFitting=1;jiggle=2;" parent="1" source="LVVLpY_JYKPzYzUHeONT-9" target="LVVLpY_JYKPzYzUHeONT-8" edge="1">
          <mxGeometry relative="1" as="geometry">
            <Array as="points">
              <mxPoint x="2362" y="404" />
              <mxPoint x="2362" y="404" />
            </Array>
          </mxGeometry>
        </mxCell>
        <mxCell id="LVVLpY_JYKPzYzUHeONT-11" value="implements" style="edgeLabel;html=1;align=center;verticalAlign=middle;resizable=0;points=[];fontSize=9;fontFamily=Architects Daughter;fontSource=https%3A%2F%2Ffonts.googleapis.com%2Fcss%3Ffamily%3DArchitects%2BDaughter;" parent="LVVLpY_JYKPzYzUHeONT-10" vertex="1" connectable="0">
          <mxGeometry x="-0.093" relative="1" as="geometry">
            <mxPoint x="29" as="offset" />
          </mxGeometry>
        </mxCell>
        <mxCell id="sWgnHZlghvhyXd7LkZwI-2" style="edgeStyle=orthogonalEdgeStyle;rounded=0;orthogonalLoop=1;jettySize=auto;html=1;entryX=0.5;entryY=0;entryDx=0;entryDy=0;dashed=1;dashPattern=1 1;endArrow=open;endFill=0;fontFamily=Architects Daughter;fontSource=https%3A%2F%2Ffonts.googleapis.com%2Fcss%3Ffamily%3DArchitects%2BDaughter;sketch=1;curveFitting=1;jiggle=2;" parent="1" source="LVVLpY_JYKPzYzUHeONT-9" target="-Qh5zQNR_VSR-YZa_GHB-38" edge="1">
          <mxGeometry relative="1" as="geometry">
            <mxPoint x="2362" y="495.9499999999998" as="targetPoint" />
          </mxGeometry>
        </mxCell>
        <mxCell id="sWgnHZlghvhyXd7LkZwI-16" value="&lt;p style=&quot;margin: 4px 0px 0px; text-align: center; line-height: 80%;&quot;&gt;&lt;b style=&quot;background-color: initial;&quot;&gt;DepartmentDatabaseDao&lt;/b&gt;&lt;br&gt;&lt;/p&gt;&lt;hr size=&quot;1&quot;&gt;&lt;div style=&quot;height:2px;&quot;&gt;&amp;nbsp;+ finAll(): List&amp;lt;DepartmentDto&amp;gt;&lt;br&gt;&amp;nbsp;+ findByCode(int code): DepartmentDto&lt;/div&gt;" style="verticalAlign=top;align=left;overflow=fill;fontSize=12;fontFamily=Architects Daughter;html=1;whiteSpace=wrap;fillColor=#fad7ac;strokeColor=#b46504;fontSource=https%3A%2F%2Ffonts.googleapis.com%2Fcss%3Ffamily%3DArchitects%2BDaughter;sketch=1;curveFitting=1;jiggle=2;" parent="1" vertex="1">
          <mxGeometry x="2246" y="671" width="232" height="57" as="geometry" />
        </mxCell>
        <mxCell id="sWgnHZlghvhyXd7LkZwI-17" style="edgeStyle=orthogonalEdgeStyle;rounded=0;orthogonalLoop=1;jettySize=auto;html=1;entryX=0.5;entryY=0;entryDx=0;entryDy=0;dashed=1;dashPattern=1 1;endArrow=open;endFill=0;exitX=0.5;exitY=1;exitDx=0;exitDy=0;fontFamily=Architects Daughter;fontSource=https%3A%2F%2Ffonts.googleapis.com%2Fcss%3Ffamily%3DArchitects%2BDaughter;sketch=1;curveFitting=1;jiggle=2;" parent="1" source="-Qh5zQNR_VSR-YZa_GHB-39" target="sWgnHZlghvhyXd7LkZwI-16" edge="1">
          <mxGeometry relative="1" as="geometry">
            <mxPoint x="2270" y="641" as="sourcePoint" />
            <mxPoint x="2360" y="661" as="targetPoint" />
          </mxGeometry>
        </mxCell>
        <mxCell id="sWgnHZlghvhyXd7LkZwI-32" value="" style="image;sketch=0;aspect=fixed;html=1;points=[];align=center;fontSize=12;image=img/lib/mscae/SQL_Database_generic.svg;fontFamily=Architects Daughter;fontSource=https%3A%2F%2Ffonts.googleapis.com%2Fcss%3Ffamily%3DArchitects%2BDaughter;" parent="1" vertex="1">
          <mxGeometry x="2464" y="708" width="32.6" height="42.89" as="geometry" />
        </mxCell>
        <mxCell id="sWgnHZlghvhyXd7LkZwI-34" value="&lt;p style=&quot;margin: 4px 0px 0px; text-align: center; line-height: 80%;&quot;&gt;&lt;b style=&quot;background-color: initial;&quot;&gt;DepartmentTCPService&lt;/b&gt;&lt;br&gt;&lt;/p&gt;&lt;hr size=&quot;1&quot;&gt;&lt;div style=&quot;height:2px;&quot;&gt;&amp;nbsp;+ main()&lt;br&gt;&amp;nbsp;+ run(): void&amp;nbsp;&lt;br&gt;&amp;nbsp;- findAll(DataOutputStream output): void&lt;br&gt;&amp;nbsp;- findByCode(DataInputStream input, DataOutputStream output): void&amp;nbsp;&lt;/div&gt;" style="verticalAlign=top;align=left;overflow=fill;fontSize=12;fontFamily=Architects Daughter;html=1;whiteSpace=wrap;fillColor=#d5e8d4;strokeColor=#82b366;fontSource=https%3A%2F%2Ffonts.googleapis.com%2Fcss%3Ffamily%3DArchitects%2BDaughter;sketch=1;curveFitting=1;jiggle=2;" parent="1" vertex="1">
          <mxGeometry x="1932" y="159.5" width="398" height="89" as="geometry" />
        </mxCell>
        <mxCell id="-Qh5zQNR_VSR-YZa_GHB-36" style="edgeStyle=orthogonalEdgeStyle;rounded=0;orthogonalLoop=1;jettySize=auto;html=1;entryX=0.25;entryY=0;entryDx=0;entryDy=0;dashed=1;dashPattern=1 1;endArrow=open;endFill=0;exitX=0.5;exitY=1;exitDx=0;exitDy=0;fontFamily=Architects Daughter;fontSource=https%3A%2F%2Ffonts.googleapis.com%2Fcss%3Ffamily%3DArchitects%2BDaughter;sketch=1;curveFitting=1;jiggle=2;" parent="1" source="sWgnHZlghvhyXd7LkZwI-34" target="LVVLpY_JYKPzYzUHeONT-8" edge="1">
          <mxGeometry relative="1" as="geometry">
            <mxPoint x="2372" y="444" as="sourcePoint" />
            <mxPoint x="2252" y="609" as="targetPoint" />
          </mxGeometry>
        </mxCell>
        <mxCell id="-Qh5zQNR_VSR-YZa_GHB-37" style="edgeStyle=orthogonalEdgeStyle;rounded=0;orthogonalLoop=1;jettySize=auto;html=1;entryX=0.75;entryY=0;entryDx=0;entryDy=0;dashed=1;dashPattern=1 1;endArrow=open;endFill=0;exitX=0.5;exitY=1;exitDx=0;exitDy=0;fontFamily=Architects Daughter;fontSource=https%3A%2F%2Ffonts.googleapis.com%2Fcss%3Ffamily%3DArchitects%2BDaughter;sketch=1;curveFitting=1;jiggle=2;" parent="1" source="sWgnHZlghvhyXd7LkZwI-21" target="LVVLpY_JYKPzYzUHeONT-8" edge="1">
          <mxGeometry relative="1" as="geometry">
            <mxPoint x="2237" y="266" as="sourcePoint" />
            <mxPoint x="2327" y="330" as="targetPoint" />
          </mxGeometry>
        </mxCell>
        <mxCell id="-Qh5zQNR_VSR-YZa_GHB-38" value="&lt;p style=&quot;margin: 4px 0px 0px; text-align: center; line-height: 80%;&quot;&gt;&lt;font style=&quot;font-size: 9px;&quot;&gt;«interface»&lt;/font&gt;&lt;b&gt;&lt;br&gt;&lt;/b&gt;&lt;/p&gt;&lt;p style=&quot;margin: 4px 0px 0px; text-align: center; line-height: 80%;&quot;&gt;&lt;b&gt;DepartmentRepository&lt;/b&gt;&lt;/p&gt;&lt;hr size=&quot;1&quot;&gt;&lt;div style=&quot;height:2px;&quot;&gt;&amp;nbsp;+ finAll(): List&amp;lt;DepartmentDto&amp;gt;&lt;br&gt;&amp;nbsp;+ findByCode(int code): DepartmentDto&lt;/div&gt;" style="verticalAlign=top;align=left;overflow=fill;fontSize=12;fontFamily=Architects Daughter;html=1;whiteSpace=wrap;fillColor=#d0cee2;strokeColor=#56517e;fontSource=https%3A%2F%2Ffonts.googleapis.com%2Fcss%3Ffamily%3DArchitects%2BDaughter;sketch=1;curveFitting=1;jiggle=2;" parent="1" vertex="1">
          <mxGeometry x="2251.5" y="511" width="221" height="73" as="geometry" />
        </mxCell>
        <mxCell id="-Qh5zQNR_VSR-YZa_GHB-40" style="edgeStyle=orthogonalEdgeStyle;rounded=0;orthogonalLoop=1;jettySize=auto;html=1;entryX=0.5;entryY=1;entryDx=0;entryDy=0;endArrow=block;endFill=0;dashed=1;dashPattern=1 1;exitX=0.5;exitY=0;exitDx=0;exitDy=0;fontFamily=Architects Daughter;fontSource=https%3A%2F%2Ffonts.googleapis.com%2Fcss%3Ffamily%3DArchitects%2BDaughter;sketch=1;curveFitting=1;jiggle=2;" parent="1" source="-Qh5zQNR_VSR-YZa_GHB-39" target="-Qh5zQNR_VSR-YZa_GHB-38" edge="1">
          <mxGeometry relative="1" as="geometry">
            <Array as="points">
              <mxPoint x="2362" y="601" />
              <mxPoint x="2362" y="601" />
            </Array>
            <mxPoint x="2342" y="618" as="sourcePoint" />
            <mxPoint x="2342" y="591" as="targetPoint" />
          </mxGeometry>
        </mxCell>
        <mxCell id="-Qh5zQNR_VSR-YZa_GHB-41" value="implements" style="edgeLabel;html=1;align=center;verticalAlign=middle;resizable=0;points=[];fontSize=9;fontFamily=Architects Daughter;fontSource=https%3A%2F%2Ffonts.googleapis.com%2Fcss%3Ffamily%3DArchitects%2BDaughter;" parent="-Qh5zQNR_VSR-YZa_GHB-40" vertex="1" connectable="0">
          <mxGeometry x="-0.093" relative="1" as="geometry">
            <mxPoint x="28" as="offset" />
          </mxGeometry>
        </mxCell>
        <mxCell id="-Qh5zQNR_VSR-YZa_GHB-47" value="&lt;p style=&quot;margin: 4px 0px 0px; text-align: center; line-height: 80%;&quot;&gt;&lt;font style=&quot;font-size: 9px;&quot;&gt;«interface»&lt;/font&gt;&lt;b&gt;&lt;br&gt;&lt;/b&gt;&lt;/p&gt;&lt;p style=&quot;margin: 4px 0px 0px; text-align: center; line-height: 80%;&quot;&gt;&lt;b&gt;EmployeeService&lt;/b&gt;&lt;/p&gt;&lt;hr size=&quot;1&quot;&gt;&lt;div style=&quot;height:2px;&quot;&gt;&amp;nbsp;+ findLatestEmployees(int quantity): List&amp;lt;EmployeeDto&amp;gt;&lt;br&gt;&amp;nbsp;+ findByCode(int code): EmployeeDto&lt;br&gt;&amp;nbsp;+ findEmployeeLocation(int code): EmployeeLocationDto&lt;/div&gt;" style="verticalAlign=top;align=left;overflow=fill;fontSize=12;fontFamily=Architects Daughter;html=1;whiteSpace=wrap;fillColor=#b0e3e6;strokeColor=#0e8088;sketch=1;curveFitting=1;jiggle=2;fontSource=https%3A%2F%2Ffonts.googleapis.com%2Fcss%3Ffamily%3DArchitects%2BDaughter;" parent="1" vertex="1">
          <mxGeometry x="1081.25" y="237" width="316.5" height="90" as="geometry" />
        </mxCell>
        <mxCell id="-Qh5zQNR_VSR-YZa_GHB-51" style="edgeStyle=orthogonalEdgeStyle;rounded=0;orthogonalLoop=1;jettySize=auto;html=1;entryX=0.5;entryY=1;entryDx=0;entryDy=0;endArrow=block;endFill=0;dashed=1;dashPattern=1 1;exitX=0.5;exitY=0;exitDx=0;exitDy=0;fontFamily=Architects Daughter;fontSource=https%3A%2F%2Ffonts.googleapis.com%2Fcss%3Ffamily%3DArchitects%2BDaughter;sketch=1;curveFitting=1;jiggle=2;" parent="1" source="-Qh5zQNR_VSR-YZa_GHB-50" target="-Qh5zQNR_VSR-YZa_GHB-47" edge="1">
          <mxGeometry relative="1" as="geometry">
            <Array as="points" />
            <mxPoint x="1247" y="357" as="sourcePoint" />
            <mxPoint x="514.4" y="327" as="targetPoint" />
          </mxGeometry>
        </mxCell>
        <mxCell id="-Qh5zQNR_VSR-YZa_GHB-52" value="implements" style="edgeLabel;html=1;align=center;verticalAlign=middle;resizable=0;points=[];fontSize=9;fontFamily=Architects Daughter;fontSource=https%3A%2F%2Ffonts.googleapis.com%2Fcss%3Ffamily%3DArchitects%2BDaughter;" parent="-Qh5zQNR_VSR-YZa_GHB-51" vertex="1" connectable="0">
          <mxGeometry x="-0.093" relative="1" as="geometry">
            <mxPoint x="29" as="offset" />
          </mxGeometry>
        </mxCell>
        <mxCell id="-Qh5zQNR_VSR-YZa_GHB-53" value="&lt;p style=&quot;margin: 4px 0px 0px; text-align: center; line-height: 80%;&quot;&gt;&lt;font style=&quot;font-size: 9px;&quot;&gt;«interface»&lt;/font&gt;&lt;b&gt;&lt;br&gt;&lt;/b&gt;&lt;/p&gt;&lt;p style=&quot;margin: 4px 0px 0px; text-align: center; line-height: 80%;&quot;&gt;&lt;b&gt;EmployeeRepository&lt;/b&gt;&lt;/p&gt;&lt;hr size=&quot;1&quot;&gt;&lt;div style=&quot;height:2px;&quot;&gt;&amp;nbsp;+ findLatestEmployees(int quantity): List&amp;lt;EmployeeDto&amp;gt;&lt;br style=&quot;border-color: var(--border-color);&quot;&gt;&amp;nbsp;+ findByCode(int code): EmployeeDto&lt;br&gt;&lt;/div&gt;" style="verticalAlign=top;align=left;overflow=fill;fontSize=12;fontFamily=Architects Daughter;html=1;whiteSpace=wrap;fillColor=#d0cee2;strokeColor=#56517e;fontSource=https%3A%2F%2Ffonts.googleapis.com%2Fcss%3Ffamily%3DArchitects%2BDaughter;sketch=1;curveFitting=1;jiggle=2;" parent="1" vertex="1">
          <mxGeometry x="892.5" y="457" width="310" height="73" as="geometry" />
        </mxCell>
        <mxCell id="-Qh5zQNR_VSR-YZa_GHB-54" value="&lt;p style=&quot;margin: 4px 0px 0px; text-align: center; line-height: 80%;&quot;&gt;&lt;b style=&quot;background-color: initial;&quot;&gt;EmployeeRepositoryImpl&lt;/b&gt;&lt;br&gt;&lt;/p&gt;&lt;hr size=&quot;1&quot;&gt;&lt;div style=&quot;height:2px;&quot;&gt;&lt;br&gt;&lt;/div&gt;" style="verticalAlign=top;align=left;overflow=fill;fontSize=12;fontFamily=Architects Daughter;html=1;whiteSpace=wrap;fillColor=#d0cee2;strokeColor=#56517e;fontSource=https%3A%2F%2Ffonts.googleapis.com%2Fcss%3Ffamily%3DArchitects%2BDaughter;sketch=1;curveFitting=1;jiggle=2;" parent="1" vertex="1">
          <mxGeometry x="957" y="547" width="180" height="30" as="geometry" />
        </mxCell>
        <mxCell id="-Qh5zQNR_VSR-YZa_GHB-55" style="rounded=0;orthogonalLoop=1;jettySize=auto;html=1;entryX=0.5;entryY=1;entryDx=0;entryDy=0;endArrow=block;endFill=0;dashed=1;dashPattern=1 1;exitX=0.5;exitY=0;exitDx=0;exitDy=0;fontFamily=Architects Daughter;fontSource=https%3A%2F%2Ffonts.googleapis.com%2Fcss%3Ffamily%3DArchitects%2BDaughter;sketch=1;curveFitting=1;jiggle=2;" parent="1" source="-Qh5zQNR_VSR-YZa_GHB-54" target="-Qh5zQNR_VSR-YZa_GHB-53" edge="1">
          <mxGeometry relative="1" as="geometry">
            <mxPoint x="1027.5" y="564" as="sourcePoint" />
            <mxPoint x="1027.5" y="537" as="targetPoint" />
          </mxGeometry>
        </mxCell>
        <mxCell id="-Qh5zQNR_VSR-YZa_GHB-56" value="implements" style="edgeLabel;html=1;align=center;verticalAlign=middle;resizable=0;points=[];fontSize=9;fontFamily=Architects Daughter;fontSource=https%3A%2F%2Ffonts.googleapis.com%2Fcss%3Ffamily%3DArchitects%2BDaughter;" parent="-Qh5zQNR_VSR-YZa_GHB-55" vertex="1" connectable="0">
          <mxGeometry x="-0.093" relative="1" as="geometry">
            <mxPoint x="28" as="offset" />
          </mxGeometry>
        </mxCell>
        <mxCell id="-Qh5zQNR_VSR-YZa_GHB-57" style="edgeStyle=elbowEdgeStyle;rounded=0;orthogonalLoop=1;jettySize=auto;html=1;dashed=1;dashPattern=1 1;endArrow=open;endFill=0;exitX=0.25;exitY=1;exitDx=0;exitDy=0;entryX=0.5;entryY=0;entryDx=0;entryDy=0;fontFamily=Architects Daughter;fontSource=https%3A%2F%2Ffonts.googleapis.com%2Fcss%3Ffamily%3DArchitects%2BDaughter;elbow=vertical;sketch=1;curveFitting=1;jiggle=2;" parent="1" source="-Qh5zQNR_VSR-YZa_GHB-50" target="-Qh5zQNR_VSR-YZa_GHB-53" edge="1">
          <mxGeometry relative="1" as="geometry">
            <mxPoint x="807" y="377" as="sourcePoint" />
            <mxPoint x="937" y="437" as="targetPoint" />
          </mxGeometry>
        </mxCell>
        <mxCell id="-Qh5zQNR_VSR-YZa_GHB-63" value="&lt;p style=&quot;margin: 4px 0px 0px; text-align: center; line-height: 80%;&quot;&gt;&lt;font style=&quot;font-size: 10px;&quot;&gt;«abstract class»&lt;/font&gt;&lt;br&gt;&lt;b&gt;EmployeeDatabaseDAO&lt;/b&gt;&lt;br&gt;&lt;/p&gt;&lt;hr size=&quot;1&quot;&gt;&lt;div style=&quot;height:2px;&quot;&gt;&amp;nbsp;+ findLatestEmployees(int quantity): List&amp;lt;EmployeeDto&amp;gt;&lt;br style=&quot;border-color: var(--border-color);&quot;&gt;&amp;nbsp;+ findByCode(int code): EmployeeDto&lt;br&gt;&amp;nbsp;#&amp;nbsp;getQueryToGetLatestEmployees&lt;/div&gt;" style="verticalAlign=top;align=left;overflow=fill;fontSize=12;fontFamily=Architects Daughter;html=1;whiteSpace=wrap;fillColor=#fad7ac;strokeColor=#b46504;fontSource=https%3A%2F%2Ffonts.googleapis.com%2Fcss%3Ffamily%3DArchitects%2BDaughter;sketch=1;curveFitting=1;jiggle=2;" parent="1" vertex="1">
          <mxGeometry x="892.5" y="617" width="310" height="83" as="geometry" />
        </mxCell>
        <mxCell id="-Qh5zQNR_VSR-YZa_GHB-64" style="rounded=0;orthogonalLoop=1;jettySize=auto;html=1;entryX=0.5;entryY=0;entryDx=0;entryDy=0;dashed=1;dashPattern=1 1;endArrow=open;endFill=0;exitX=0.5;exitY=1;exitDx=0;exitDy=0;fontFamily=Architects Daughter;fontSource=https%3A%2F%2Ffonts.googleapis.com%2Fcss%3Ffamily%3DArchitects%2BDaughter;sketch=1;curveFitting=1;jiggle=2;" parent="1" source="-Qh5zQNR_VSR-YZa_GHB-54" target="-Qh5zQNR_VSR-YZa_GHB-63" edge="1">
          <mxGeometry relative="1" as="geometry">
            <mxPoint x="965" y="577" as="sourcePoint" />
            <mxPoint x="1008" y="607" as="targetPoint" />
          </mxGeometry>
        </mxCell>
        <mxCell id="-Qh5zQNR_VSR-YZa_GHB-65" value="" style="image;sketch=0;aspect=fixed;html=1;points=[];align=center;fontSize=12;image=img/lib/mscae/SQL_Database_generic.svg;fontFamily=Architects Daughter;fontSource=https%3A%2F%2Ffonts.googleapis.com%2Fcss%3Ffamily%3DArchitects%2BDaughter;" parent="1" vertex="1">
          <mxGeometry x="1195" y="661" width="32.6" height="42.89" as="geometry" />
        </mxCell>
        <mxCell id="-Qh5zQNR_VSR-YZa_GHB-69" value="&lt;p style=&quot;margin: 4px 0px 0px; text-align: center; line-height: 80%;&quot;&gt;&lt;font style=&quot;font-size: 9px;&quot;&gt;«interface»&lt;/font&gt;&lt;b&gt;&lt;br&gt;&lt;/b&gt;&lt;/p&gt;&lt;p style=&quot;margin: 4px 0px 0px; text-align: center; line-height: 80%;&quot;&gt;&lt;b&gt;DepartmentRepository&lt;/b&gt;&lt;/p&gt;&lt;hr size=&quot;1&quot;&gt;&lt;div style=&quot;height:2px;&quot;&gt;&amp;nbsp;+ finAll(): List&amp;lt;DepartmentDto&amp;gt;&lt;br&gt;&amp;nbsp;+ findByCode(int code): DepartmentDto&lt;/div&gt;" style="verticalAlign=top;align=left;overflow=fill;fontSize=12;fontFamily=Architects Daughter;html=1;whiteSpace=wrap;fillColor=#d0cee2;strokeColor=#56517e;fontSource=https%3A%2F%2Ffonts.googleapis.com%2Fcss%3Ffamily%3DArchitects%2BDaughter;sketch=1;curveFitting=1;jiggle=2;" parent="1" vertex="1">
          <mxGeometry x="1355.5" y="457" width="221" height="73" as="geometry" />
        </mxCell>
        <mxCell id="-Qh5zQNR_VSR-YZa_GHB-70" value="&lt;p style=&quot;margin: 4px 0px 0px; text-align: center; line-height: 80%;&quot;&gt;&lt;b style=&quot;background-color: initial;&quot;&gt;DepartmentRepositoryImpl&lt;/b&gt;&lt;br&gt;&lt;/p&gt;&lt;hr size=&quot;1&quot;&gt;&lt;div style=&quot;height:2px;&quot;&gt;&lt;br&gt;&lt;/div&gt;" style="verticalAlign=top;align=left;overflow=fill;fontSize=12;fontFamily=Architects Daughter;html=1;whiteSpace=wrap;fillColor=#d0cee2;strokeColor=#56517e;fontSource=https%3A%2F%2Ffonts.googleapis.com%2Fcss%3Ffamily%3DArchitects%2BDaughter;sketch=1;curveFitting=1;jiggle=2;" parent="1" vertex="1">
          <mxGeometry x="1376" y="547" width="180" height="30" as="geometry" />
        </mxCell>
        <mxCell id="-Qh5zQNR_VSR-YZa_GHB-71" style="edgeStyle=elbowEdgeStyle;rounded=0;orthogonalLoop=1;jettySize=auto;html=1;dashed=1;dashPattern=1 1;endArrow=open;endFill=0;exitX=0.75;exitY=1;exitDx=0;exitDy=0;entryX=0.5;entryY=0;entryDx=0;entryDy=0;fontFamily=Architects Daughter;fontSource=https%3A%2F%2Ffonts.googleapis.com%2Fcss%3Ffamily%3DArchitects%2BDaughter;elbow=vertical;sketch=1;curveFitting=1;jiggle=2;" parent="1" source="-Qh5zQNR_VSR-YZa_GHB-50" target="-Qh5zQNR_VSR-YZa_GHB-69" edge="1">
          <mxGeometry relative="1" as="geometry">
            <mxPoint x="1242" y="416" as="sourcePoint" />
            <mxPoint x="1146" y="467" as="targetPoint" />
          </mxGeometry>
        </mxCell>
        <mxCell id="-Qh5zQNR_VSR-YZa_GHB-72" style="rounded=0;orthogonalLoop=1;jettySize=auto;html=1;endArrow=block;endFill=0;dashed=1;dashPattern=1 1;entryX=0.5;entryY=1;entryDx=0;entryDy=0;exitX=0.5;exitY=0;exitDx=0;exitDy=0;fontFamily=Architects Daughter;fontSource=https%3A%2F%2Ffonts.googleapis.com%2Fcss%3Ffamily%3DArchitects%2BDaughter;sketch=1;curveFitting=1;jiggle=2;" parent="1" source="-Qh5zQNR_VSR-YZa_GHB-70" target="-Qh5zQNR_VSR-YZa_GHB-69" edge="1">
          <mxGeometry relative="1" as="geometry">
            <mxPoint x="1157" y="587" as="sourcePoint" />
            <mxPoint x="1387" y="577" as="targetPoint" />
          </mxGeometry>
        </mxCell>
        <mxCell id="-Qh5zQNR_VSR-YZa_GHB-73" value="implements" style="edgeLabel;html=1;align=center;verticalAlign=middle;resizable=0;points=[];fontSize=9;fontFamily=Architects Daughter;fontSource=https%3A%2F%2Ffonts.googleapis.com%2Fcss%3Ffamily%3DArchitects%2BDaughter;" parent="-Qh5zQNR_VSR-YZa_GHB-72" vertex="1" connectable="0">
          <mxGeometry x="-0.093" relative="1" as="geometry">
            <mxPoint x="28" as="offset" />
          </mxGeometry>
        </mxCell>
        <mxCell id="-Qh5zQNR_VSR-YZa_GHB-76" value="&lt;p style=&quot;margin: 4px 0px 0px; text-align: center; line-height: 80%;&quot;&gt;&lt;b style=&quot;background-color: initial;&quot;&gt;DepartmentDAO&lt;/b&gt;&lt;br&gt;&lt;/p&gt;&lt;hr size=&quot;1&quot;&gt;&lt;div style=&quot;height:2px;&quot;&gt;&amp;nbsp;+ finAll(): List&amp;lt;DepartmentDto&amp;gt;&lt;br&gt;&amp;nbsp;+ findByCode(int code): DepartmentDto&lt;/div&gt;" style="verticalAlign=top;align=left;overflow=fill;fontSize=12;fontFamily=Architects Daughter;html=1;whiteSpace=wrap;fillColor=#fad7ac;strokeColor=#b46504;fontSource=https%3A%2F%2Ffonts.googleapis.com%2Fcss%3Ffamily%3DArchitects%2BDaughter;sketch=1;curveFitting=1;jiggle=2;" parent="1" vertex="1">
          <mxGeometry x="1350" y="601" width="232" height="57" as="geometry" />
        </mxCell>
        <mxCell id="-Qh5zQNR_VSR-YZa_GHB-78" style="rounded=0;orthogonalLoop=1;jettySize=auto;html=1;entryX=0.5;entryY=0;entryDx=0;entryDy=0;dashed=1;dashPattern=1 1;endArrow=open;endFill=0;exitX=0.5;exitY=1;exitDx=0;exitDy=0;fontFamily=Architects Daughter;fontSource=https%3A%2F%2Ffonts.googleapis.com%2Fcss%3Ffamily%3DArchitects%2BDaughter;sketch=1;curveFitting=1;jiggle=2;" parent="1" source="-Qh5zQNR_VSR-YZa_GHB-70" target="-Qh5zQNR_VSR-YZa_GHB-76" edge="1">
          <mxGeometry relative="1" as="geometry">
            <mxPoint x="1397.75" y="587" as="sourcePoint" />
            <mxPoint x="1398.75" y="627" as="targetPoint" />
          </mxGeometry>
        </mxCell>
        <mxCell id="-Qh5zQNR_VSR-YZa_GHB-79" value="&lt;p style=&quot;margin: 4px 0px 0px; text-align: center; line-height: 80%;&quot;&gt;&lt;b style=&quot;background-color: initial;&quot;&gt;DepartmentTCPDAO&lt;/b&gt;&lt;br&gt;&lt;/p&gt;&lt;hr size=&quot;1&quot;&gt;&lt;div style=&quot;height:2px;&quot;&gt;&lt;br&gt;&lt;/div&gt;" style="verticalAlign=top;align=left;overflow=fill;fontSize=12;fontFamily=Architects Daughter;html=1;whiteSpace=wrap;fillColor=#fad7ac;strokeColor=#b46504;fontSource=https%3A%2F%2Ffonts.googleapis.com%2Fcss%3Ffamily%3DArchitects%2BDaughter;sketch=1;curveFitting=1;jiggle=2;" parent="1" vertex="1">
          <mxGeometry x="1296" y="708" width="158" height="30" as="geometry" />
        </mxCell>
        <mxCell id="-Qh5zQNR_VSR-YZa_GHB-80" value="&lt;p style=&quot;margin: 4px 0px 0px; text-align: center; line-height: 80%;&quot;&gt;&lt;b style=&quot;background-color: initial;&quot;&gt;DepartmentRMIDAO&lt;/b&gt;&lt;br&gt;&lt;/p&gt;&lt;hr size=&quot;1&quot;&gt;&lt;div style=&quot;height:2px;&quot;&gt;&lt;br&gt;&lt;/div&gt;" style="verticalAlign=top;align=left;overflow=fill;fontSize=12;fontFamily=Architects Daughter;html=1;whiteSpace=wrap;fillColor=#fad7ac;strokeColor=#b46504;fontSource=https%3A%2F%2Ffonts.googleapis.com%2Fcss%3Ffamily%3DArchitects%2BDaughter;sketch=1;curveFitting=1;jiggle=2;" parent="1" vertex="1">
          <mxGeometry x="1507.5" y="709" width="162" height="30" as="geometry" />
        </mxCell>
        <mxCell id="-Qh5zQNR_VSR-YZa_GHB-82" style="rounded=0;orthogonalLoop=1;jettySize=auto;html=1;endArrow=block;endFill=0;dashed=1;dashPattern=1 1;entryX=0.25;entryY=1;entryDx=0;entryDy=0;exitX=0.5;exitY=0;exitDx=0;exitDy=0;edgeStyle=orthogonalEdgeStyle;fontFamily=Architects Daughter;fontSource=https%3A%2F%2Ffonts.googleapis.com%2Fcss%3Ffamily%3DArchitects%2BDaughter;sketch=1;curveFitting=1;jiggle=2;" parent="1" source="-Qh5zQNR_VSR-YZa_GHB-79" target="-Qh5zQNR_VSR-YZa_GHB-76" edge="1">
          <mxGeometry relative="1" as="geometry">
            <mxPoint x="1428" y="557" as="sourcePoint" />
            <mxPoint x="1428" y="540" as="targetPoint" />
            <Array as="points">
              <mxPoint x="1375" y="684" />
              <mxPoint x="1408" y="684" />
            </Array>
          </mxGeometry>
        </mxCell>
        <mxCell id="-Qh5zQNR_VSR-YZa_GHB-83" value="implements" style="edgeLabel;html=1;align=center;verticalAlign=middle;resizable=0;points=[];fontSize=9;fontFamily=Architects Daughter;fontSource=https%3A%2F%2Ffonts.googleapis.com%2Fcss%3Ffamily%3DArchitects%2BDaughter;" parent="-Qh5zQNR_VSR-YZa_GHB-82" vertex="1" connectable="0">
          <mxGeometry x="-0.093" relative="1" as="geometry">
            <mxPoint x="-14" y="-11" as="offset" />
          </mxGeometry>
        </mxCell>
        <mxCell id="-Qh5zQNR_VSR-YZa_GHB-84" style="rounded=0;orthogonalLoop=1;jettySize=auto;html=1;endArrow=block;endFill=0;dashed=1;dashPattern=1 1;entryX=0.75;entryY=1;entryDx=0;entryDy=0;exitX=0.5;exitY=0;exitDx=0;exitDy=0;edgeStyle=orthogonalEdgeStyle;fontFamily=Architects Daughter;fontSource=https%3A%2F%2Ffonts.googleapis.com%2Fcss%3Ffamily%3DArchitects%2BDaughter;sketch=1;curveFitting=1;jiggle=2;" parent="1" target="-Qh5zQNR_VSR-YZa_GHB-76" edge="1">
          <mxGeometry relative="1" as="geometry">
            <mxPoint x="1588.500000000001" y="700" as="sourcePoint" />
            <mxPoint x="1370" y="674" as="targetPoint" />
            <Array as="points">
              <mxPoint x="1589" y="686" />
              <mxPoint x="1524" y="686" />
            </Array>
          </mxGeometry>
        </mxCell>
        <mxCell id="-Qh5zQNR_VSR-YZa_GHB-85" value="implements" style="edgeLabel;html=1;align=center;verticalAlign=middle;resizable=0;points=[];fontSize=9;fontFamily=Architects Daughter;fontSource=https%3A%2F%2Ffonts.googleapis.com%2Fcss%3Ffamily%3DArchitects%2BDaughter;" parent="-Qh5zQNR_VSR-YZa_GHB-84" vertex="1" connectable="0">
          <mxGeometry x="-0.093" relative="1" as="geometry">
            <mxPoint x="-2" y="-9" as="offset" />
          </mxGeometry>
        </mxCell>
        <mxCell id="-Qh5zQNR_VSR-YZa_GHB-86" value="&lt;p style=&quot;margin: 4px 0px 0px; text-align: center; line-height: 80%;&quot;&gt;&lt;b style=&quot;border-color: var(--border-color);&quot;&gt;EmployeeDatabaseDAOMysql&lt;/b&gt;&lt;br&gt;&lt;/p&gt;&lt;hr size=&quot;1&quot;&gt;&lt;div style=&quot;height:2px;&quot;&gt;&lt;br&gt;&lt;/div&gt;" style="verticalAlign=top;align=left;overflow=fill;fontSize=12;fontFamily=Architects Daughter;html=1;whiteSpace=wrap;fillColor=#fad7ac;strokeColor=#b46504;fontSource=https%3A%2F%2Ffonts.googleapis.com%2Fcss%3Ffamily%3DArchitects%2BDaughter;sketch=1;curveFitting=1;jiggle=2;" parent="1" vertex="1">
          <mxGeometry x="832" y="737" width="180" height="30" as="geometry" />
        </mxCell>
        <mxCell id="-Qh5zQNR_VSR-YZa_GHB-87" value="&lt;p style=&quot;margin: 4px 0px 0px; text-align: center; line-height: 80%;&quot;&gt;&lt;b style=&quot;border-color: var(--border-color);&quot;&gt;EmployeeDatabaseDAOOracle&lt;/b&gt;&lt;br&gt;&lt;/p&gt;&lt;hr size=&quot;1&quot;&gt;&lt;div style=&quot;height:2px;&quot;&gt;&lt;br&gt;&lt;/div&gt;" style="verticalAlign=top;align=left;overflow=fill;fontSize=12;fontFamily=Architects Daughter;html=1;whiteSpace=wrap;fillColor=#fad7ac;strokeColor=#b46504;fontSource=https%3A%2F%2Ffonts.googleapis.com%2Fcss%3Ffamily%3DArchitects%2BDaughter;sketch=1;curveFitting=1;jiggle=2;" parent="1" vertex="1">
          <mxGeometry x="1062" y="737" width="180" height="30" as="geometry" />
        </mxCell>
        <mxCell id="-Qh5zQNR_VSR-YZa_GHB-88" style="rounded=0;orthogonalLoop=1;jettySize=auto;html=1;endArrow=block;endFill=0;dashed=1;dashPattern=1 1;entryX=0.25;entryY=1;entryDx=0;entryDy=0;exitX=0.5;exitY=0;exitDx=0;exitDy=0;edgeStyle=orthogonalEdgeStyle;fontFamily=Architects Daughter;fontSource=https%3A%2F%2Ffonts.googleapis.com%2Fcss%3Ffamily%3DArchitects%2BDaughter;sketch=1;curveFitting=1;jiggle=2;" parent="1" source="-Qh5zQNR_VSR-YZa_GHB-86" target="-Qh5zQNR_VSR-YZa_GHB-63" edge="1">
          <mxGeometry relative="1" as="geometry">
            <mxPoint x="867" y="727" as="sourcePoint" />
            <mxPoint x="903" y="674" as="targetPoint" />
            <Array as="points">
              <mxPoint x="922" y="725" />
              <mxPoint x="970" y="725" />
            </Array>
          </mxGeometry>
        </mxCell>
        <mxCell id="-Qh5zQNR_VSR-YZa_GHB-89" value="extends" style="edgeLabel;html=1;align=center;verticalAlign=middle;resizable=0;points=[];fontSize=9;fontFamily=Architects Daughter;fontSource=https%3A%2F%2Ffonts.googleapis.com%2Fcss%3Ffamily%3DArchitects%2BDaughter;" parent="-Qh5zQNR_VSR-YZa_GHB-88" vertex="1" connectable="0">
          <mxGeometry x="-0.093" relative="1" as="geometry">
            <mxPoint x="-10" y="-8" as="offset" />
          </mxGeometry>
        </mxCell>
        <mxCell id="-Qh5zQNR_VSR-YZa_GHB-90" style="rounded=0;orthogonalLoop=1;jettySize=auto;html=1;endArrow=block;endFill=0;dashed=1;dashPattern=1 1;entryX=0.75;entryY=1;entryDx=0;entryDy=0;exitX=0.5;exitY=0;exitDx=0;exitDy=0;edgeStyle=orthogonalEdgeStyle;fontFamily=Architects Daughter;fontSource=https%3A%2F%2Ffonts.googleapis.com%2Fcss%3Ffamily%3DArchitects%2BDaughter;sketch=1;curveFitting=1;jiggle=2;" parent="1" source="-Qh5zQNR_VSR-YZa_GHB-87" target="-Qh5zQNR_VSR-YZa_GHB-63" edge="1">
          <mxGeometry relative="1" as="geometry">
            <mxPoint x="932" y="747" as="sourcePoint" />
            <mxPoint x="980" y="710" as="targetPoint" />
            <Array as="points">
              <mxPoint x="1152" y="725" />
              <mxPoint x="1125" y="725" />
            </Array>
          </mxGeometry>
        </mxCell>
        <mxCell id="-Qh5zQNR_VSR-YZa_GHB-91" value="extends" style="edgeLabel;html=1;align=center;verticalAlign=middle;resizable=0;points=[];fontSize=9;fontFamily=Architects Daughter;fontSource=https%3A%2F%2Ffonts.googleapis.com%2Fcss%3Ffamily%3DArchitects%2BDaughter;" parent="-Qh5zQNR_VSR-YZa_GHB-90" vertex="1" connectable="0">
          <mxGeometry x="-0.093" relative="1" as="geometry">
            <mxPoint x="16" y="-9" as="offset" />
          </mxGeometry>
        </mxCell>
        <mxCell id="nEkKxy4sDLhJySdy__0V-2" style="rounded=0;sketch=1;hachureGap=4;jiggle=2;curveFitting=1;orthogonalLoop=1;jettySize=auto;html=1;entryX=0.5;entryY=0;entryDx=0;entryDy=0;fontFamily=Architects Daughter;fontSource=https%3A%2F%2Ffonts.googleapis.com%2Fcss%3Ffamily%3DArchitects%2BDaughter;fontSize=16;dashed=1;dashPattern=1 1;" parent="1" target="-Qh5zQNR_VSR-YZa_GHB-47" edge="1">
          <mxGeometry relative="1" as="geometry">
            <mxPoint x="1239" y="187" as="sourcePoint" />
          </mxGeometry>
        </mxCell>
        <mxCell id="HNk5qBnJwfWYtbXmrRM9-17" value="" style="group" parent="1" vertex="1" connectable="0">
          <mxGeometry x="2400" y="69" width="259" height="80" as="geometry" />
        </mxCell>
        <mxCell id="HNk5qBnJwfWYtbXmrRM9-15" value="&lt;font color=&quot;#cc0000&quot;&gt;&lt;b style=&quot;font-size: 15px;&quot;&gt;DepartmentRMIApplication&lt;/b&gt;&lt;br style=&quot;font-size: 15px;&quot;&gt;&lt;/font&gt;&lt;font color=&quot;#808080&quot;&gt;Socket:&lt;/font&gt;&lt;br&gt;- IP: localhost&lt;br style=&quot;font-size: 15px;&quot;&gt;- Port: 5001" style="text;html=1;align=left;verticalAlign=middle;resizable=0;points=[];autosize=1;strokeColor=none;fillColor=none;fontSize=15;fontFamily=Architects Daughter;" parent="HNk5qBnJwfWYtbXmrRM9-17" vertex="1">
          <mxGeometry x="59" y="-10" width="200" height="90" as="geometry" />
        </mxCell>
        <mxCell id="HNk5qBnJwfWYtbXmrRM9-16" value="" style="verticalLabelPosition=bottom;sketch=0;aspect=fixed;html=1;verticalAlign=top;strokeColor=none;align=center;outlineConnect=0;shape=mxgraph.citrix.tower_server;hachureGap=4;jiggle=2;curveFitting=1;fontFamily=Architects Daughter;fontSource=https%3A%2F%2Ffonts.googleapis.com%2Fcss%3Ffamily%3DArchitects%2BDaughter;fontSize=20;" parent="HNk5qBnJwfWYtbXmrRM9-17" vertex="1">
          <mxGeometry y="8" width="45" height="58.85" as="geometry" />
        </mxCell>
        <mxCell id="-Qh5zQNR_VSR-YZa_GHB-96" value="department" style="text;html=1;align=center;verticalAlign=middle;resizable=0;points=[];autosize=1;strokeColor=none;fillColor=none;fontStyle=1;fontFamily=Architects Daughter;fontSource=https%3A%2F%2Ffonts.googleapis.com%2Fcss%3Ffamily%3DArchitects%2BDaughter;fontSize=22;" parent="1" vertex="1">
          <mxGeometry x="1922" y="-19" width="140" height="40" as="geometry" />
        </mxCell>
        <mxCell id="sWgnHZlghvhyXd7LkZwI-21" value="&lt;p style=&quot;margin: 4px 0px 0px; text-align: center; line-height: 80%;&quot;&gt;&lt;b&gt;DepartmentRMIService&lt;/b&gt;&lt;br&gt;&lt;/p&gt;&lt;hr size=&quot;1&quot;&gt;&lt;div style=&quot;height:2px;&quot;&gt;&amp;nbsp;+ finAll(): List&amp;lt;String&amp;gt;&lt;br&gt;&amp;nbsp;+ findByCode(int code): String&lt;/div&gt;" style="verticalAlign=top;align=left;overflow=fill;fontSize=12;fontFamily=Architects Daughter;html=1;whiteSpace=wrap;fillColor=#d5e8d4;strokeColor=#82b366;fontSource=https%3A%2F%2Ffonts.googleapis.com%2Fcss%3Ffamily%3DArchitects%2BDaughter;sketch=1;curveFitting=1;jiggle=2;" parent="1" vertex="1">
          <mxGeometry x="2420" y="170" width="185" height="58" as="geometry" />
        </mxCell>
        <mxCell id="LVVLpY_JYKPzYzUHeONT-9" value="&lt;p style=&quot;margin: 4px 0px 0px; text-align: center; line-height: 80%;&quot;&gt;&lt;b style=&quot;background-color: initial;&quot;&gt;DepartmentServiceImpl&lt;/b&gt;&lt;br&gt;&lt;/p&gt;&lt;hr size=&quot;1&quot;&gt;&lt;div style=&quot;height:2px;&quot;&gt;&amp;nbsp;+ DepartmentServiceImpl(DepartmentRepository repository)&lt;/div&gt;" style="verticalAlign=top;align=left;overflow=fill;fontSize=12;fontFamily=Architects Daughter;html=1;whiteSpace=wrap;fillColor=#b0e3e6;strokeColor=#0e8088;fontSource=https%3A%2F%2Ffonts.googleapis.com%2Fcss%3Ffamily%3DArchitects%2BDaughter;sketch=1;curveFitting=1;jiggle=2;" parent="1" vertex="1">
          <mxGeometry x="2198.5" y="430" width="325" height="42" as="geometry" />
        </mxCell>
        <mxCell id="-Qh5zQNR_VSR-YZa_GHB-39" value="&lt;p style=&quot;margin: 4px 0px 0px; text-align: center; line-height: 80%;&quot;&gt;&lt;b style=&quot;background-color: initial;&quot;&gt;DepartmentRepositoryImpl&lt;/b&gt;&lt;br&gt;&lt;/p&gt;&lt;hr size=&quot;1&quot;&gt;&lt;div style=&quot;height:2px;&quot;&gt;&lt;br&gt;&lt;/div&gt;" style="verticalAlign=top;align=left;overflow=fill;fontSize=12;fontFamily=Architects Daughter;html=1;whiteSpace=wrap;fillColor=#d0cee2;strokeColor=#56517e;fontSource=https%3A%2F%2Ffonts.googleapis.com%2Fcss%3Ffamily%3DArchitects%2BDaughter;sketch=1;curveFitting=1;jiggle=2;" parent="1" vertex="1">
          <mxGeometry x="2272" y="610" width="180" height="30" as="geometry" />
        </mxCell>
        <mxCell id="HNk5qBnJwfWYtbXmrRM9-19" value="" style="group" parent="1" vertex="1" connectable="0">
          <mxGeometry x="2020" y="59" width="264" height="90" as="geometry" />
        </mxCell>
        <mxCell id="HNk5qBnJwfWYtbXmrRM9-11" value="&lt;b style=&quot;font-size: 15px;&quot;&gt;&lt;font color=&quot;#cc0000&quot;&gt;DepartmentTCPApplication&lt;/font&gt;&lt;/b&gt;&lt;br style=&quot;font-size: 15px;&quot;&gt;&lt;font color=&quot;#808080&quot;&gt;Socket:&lt;/font&gt;&lt;br&gt;- IP: localhost&lt;br style=&quot;font-size: 15px;&quot;&gt;- Port: 5000" style="text;html=1;align=left;verticalAlign=middle;resizable=0;points=[];autosize=1;strokeColor=none;fillColor=none;fontSize=15;fontFamily=Architects Daughter;" parent="HNk5qBnJwfWYtbXmrRM9-19" vertex="1">
          <mxGeometry x="54" width="210" height="90" as="geometry" />
        </mxCell>
        <mxCell id="HNk5qBnJwfWYtbXmrRM9-9" value="" style="verticalLabelPosition=bottom;sketch=0;aspect=fixed;html=1;verticalAlign=top;strokeColor=none;align=center;outlineConnect=0;shape=mxgraph.citrix.tower_server;hachureGap=4;jiggle=2;curveFitting=1;fontFamily=Architects Daughter;fontSource=https%3A%2F%2Ffonts.googleapis.com%2Fcss%3Ffamily%3DArchitects%2BDaughter;fontSize=20;" parent="HNk5qBnJwfWYtbXmrRM9-19" vertex="1">
          <mxGeometry y="17" width="45" height="58.85" as="geometry" />
        </mxCell>
        <mxCell id="HNk5qBnJwfWYtbXmrRM9-20" value="" style="endArrow=none;startArrow=classic;html=1;rounded=0;sketch=1;hachureGap=4;jiggle=2;curveFitting=1;fontFamily=Architects Daughter;fontSource=https%3A%2F%2Ffonts.googleapis.com%2Fcss%3Ffamily%3DArchitects%2BDaughter;fontSize=16;fillColor=#fad9d5;strokeColor=#ae4132;dashed=1;startFill=1;endFill=0;strokeWidth=2;" parent="1" target="HNk5qBnJwfWYtbXmrRM9-18" edge="1">
          <mxGeometry width="50" height="50" relative="1" as="geometry">
            <mxPoint x="2519" y="60" as="sourcePoint" />
            <mxPoint x="1550" y="1040" as="targetPoint" />
            <Array as="points">
              <mxPoint x="2521" y="-99" />
              <mxPoint x="1760" y="-100" />
              <mxPoint x="1760" y="880" />
              <mxPoint x="1590" y="880" />
            </Array>
          </mxGeometry>
        </mxCell>
        <mxCell id="sWgnHZlghvhyXd7LkZwI-44" value="" style="shape=image;html=1;verticalAlign=top;verticalLabelPosition=bottom;labelBackgroundColor=#ffffff;imageAspect=0;aspect=fixed;image=https://cdn2.iconfinder.com/data/icons/whcompare-servers-web-hosting/50/dedicated-ip-address-128.png;align=center;fontFamily=Architects Daughter;fontSource=https%3A%2F%2Ffonts.googleapis.com%2Fcss%3Ffamily%3DArchitects%2BDaughter;fontSize=14;" parent="1" vertex="1">
          <mxGeometry x="1741" y="404" width="50" height="50" as="geometry" />
        </mxCell>
        <mxCell id="HNk5qBnJwfWYtbXmrRM9-23" value="" style="endArrow=none;startArrow=classic;html=1;rounded=0;sketch=1;hachureGap=4;jiggle=2;curveFitting=1;fontFamily=Architects Daughter;fontSource=https%3A%2F%2Ffonts.googleapis.com%2Fcss%3Ffamily%3DArchitects%2BDaughter;fontSize=16;fillColor=#fad9d5;strokeColor=#ae4132;dashed=1;endFill=0;strokeWidth=2;" parent="1" target="HNk5qBnJwfWYtbXmrRM9-7" edge="1">
          <mxGeometry width="50" height="50" relative="1" as="geometry">
            <mxPoint x="2160" y="63" as="sourcePoint" />
            <mxPoint x="1318" y="800" as="targetPoint" />
            <Array as="points">
              <mxPoint x="2160" y="-70" />
              <mxPoint x="1839" y="-70" />
              <mxPoint x="1840" y="910" />
              <mxPoint x="1375" y="910" />
            </Array>
          </mxGeometry>
        </mxCell>
        <mxCell id="HNk5qBnJwfWYtbXmrRM9-26" value="" style="shape=image;html=1;verticalAlign=top;verticalLabelPosition=bottom;labelBackgroundColor=#ffffff;imageAspect=0;aspect=fixed;image=https://cdn2.iconfinder.com/data/icons/whcompare-servers-web-hosting/50/dedicated-ip-address-128.png;align=center;fontFamily=Architects Daughter;fontSource=https%3A%2F%2Ffonts.googleapis.com%2Fcss%3Ffamily%3DArchitects%2BDaughter;fontSize=14;" parent="1" vertex="1">
          <mxGeometry x="1823" y="400" width="50" height="50" as="geometry" />
        </mxCell>
        <mxCell id="mbuu89IxqkNLr_L0eWKM-2" value="" style="group" parent="1" vertex="1" connectable="0">
          <mxGeometry x="1110" y="140" width="259" height="80" as="geometry" />
        </mxCell>
        <mxCell id="mbuu89IxqkNLr_L0eWKM-3" value="&lt;b style=&quot;font-size: 15px;&quot;&gt;&lt;font color=&quot;#cc0000&quot;&gt;EmployeeApplication&lt;/font&gt;&lt;/b&gt;" style="text;html=1;align=center;verticalAlign=middle;resizable=0;points=[];autosize=1;strokeColor=none;fillColor=none;fontSize=15;fontFamily=Architects Daughter;" parent="mbuu89IxqkNLr_L0eWKM-2" vertex="1">
          <mxGeometry x="59" y="20" width="160" height="30" as="geometry" />
        </mxCell>
        <mxCell id="mbuu89IxqkNLr_L0eWKM-4" value="" style="verticalLabelPosition=bottom;sketch=0;aspect=fixed;html=1;verticalAlign=top;strokeColor=none;align=center;outlineConnect=0;shape=mxgraph.citrix.tower_server;hachureGap=4;jiggle=2;curveFitting=1;fontFamily=Architects Daughter;fontSource=https%3A%2F%2Ffonts.googleapis.com%2Fcss%3Ffamily%3DArchitects%2BDaughter;fontSize=20;" parent="mbuu89IxqkNLr_L0eWKM-2" vertex="1">
          <mxGeometry y="8" width="45" height="58.85" as="geometry" />
        </mxCell>
        <mxCell id="-Qh5zQNR_VSR-YZa_GHB-100" value="employee" style="text;html=1;align=center;verticalAlign=middle;resizable=0;points=[];autosize=1;strokeColor=none;fillColor=none;fontStyle=1;fontFamily=Architects Daughter;fontSource=https%3A%2F%2Ffonts.googleapis.com%2Fcss%3Ffamily%3DArchitects%2BDaughter;fontSize=22;" parent="1" vertex="1">
          <mxGeometry x="828" y="79" width="120" height="40" as="geometry" />
        </mxCell>
        <mxCell id="-Qh5zQNR_VSR-YZa_GHB-50" value="&lt;p style=&quot;margin: 4px 0px 0px; text-align: center; line-height: 80%;&quot;&gt;&lt;b style=&quot;background-color: initial;&quot;&gt;EmployeeServiceImpl&lt;/b&gt;&lt;br&gt;&lt;/p&gt;&lt;hr size=&quot;1&quot;&gt;&lt;div style=&quot;height:2px;&quot;&gt;&amp;nbsp;+ EmployeeServiceImpl(EmployeeRepository employeeRepository,&amp;nbsp;&lt;br&gt;&amp;nbsp; &amp;nbsp; &amp;nbsp; &amp;nbsp; &amp;nbsp; &amp;nbsp; &amp;nbsp; &amp;nbsp; &amp;nbsp; &amp;nbsp; &amp;nbsp; &amp;nbsp; &amp;nbsp; &amp;nbsp; &amp;nbsp; &amp;nbsp; &amp;nbsp; &amp;nbsp; &amp;nbsp; &amp;nbsp; DepartmentRepository departmentRepository)&lt;/div&gt;" style="verticalAlign=top;align=left;overflow=fill;fontSize=12;fontFamily=Architects Daughter;html=1;whiteSpace=wrap;fillColor=#b0e3e6;strokeColor=#0e8088;fontSource=https%3A%2F%2Ffonts.googleapis.com%2Fcss%3Ffamily%3DArchitects%2BDaughter;sketch=1;curveFitting=1;jiggle=2;" parent="1" vertex="1">
          <mxGeometry x="1006.5" y="355.3373493975904" width="466" height="64.61445783132531" as="geometry" />
        </mxCell>
        <mxCell id="mbuu89IxqkNLr_L0eWKM-7" style="rounded=0;sketch=1;hachureGap=4;jiggle=2;curveFitting=1;orthogonalLoop=1;jettySize=auto;html=1;entryX=0.5;entryY=0;entryDx=0;entryDy=0;fontFamily=Architects Daughter;fontSource=https%3A%2F%2Ffonts.googleapis.com%2Fcss%3Ffamily%3DArchitects%2BDaughter;fontSize=16;dashed=1;dashPattern=1 1;" parent="1" edge="1">
          <mxGeometry relative="1" as="geometry">
            <mxPoint x="2191" y="91" as="sourcePoint" />
            <mxPoint x="2191" y="158" as="targetPoint" />
          </mxGeometry>
        </mxCell>
        <mxCell id="mbuu89IxqkNLr_L0eWKM-8" style="rounded=0;sketch=1;hachureGap=4;jiggle=2;curveFitting=1;orthogonalLoop=1;jettySize=auto;html=1;entryX=0.5;entryY=0;entryDx=0;entryDy=0;fontFamily=Architects Daughter;fontSource=https%3A%2F%2Ffonts.googleapis.com%2Fcss%3Ffamily%3DArchitects%2BDaughter;fontSize=16;dashed=1;dashPattern=1 1;" parent="1" edge="1">
          <mxGeometry relative="1" as="geometry">
            <mxPoint x="2568" y="93" as="sourcePoint" />
            <mxPoint x="2568" y="168" as="targetPoint" />
          </mxGeometry>
        </mxCell>
        <mxCell id="HNk5qBnJwfWYtbXmrRM9-7" value="&lt;font style=&quot;font-size: 15px;&quot;&gt;&lt;b&gt;TCP Client&lt;/b&gt;&lt;/font&gt;" style="image;points=[];aspect=fixed;html=1;align=center;shadow=0;dashed=0;image=img/lib/allied_telesis/computer_and_terminals/Personal_Computer_with_Server.svg;sketch=1;hachureGap=4;jiggle=2;curveFitting=1;fontFamily=Architects Daughter;fontSource=https%3A%2F%2Ffonts.googleapis.com%2Fcss%3Ffamily%3DArchitects%2BDaughter;fontSize=20;" parent="1" vertex="1">
          <mxGeometry x="1343.8" y="750" width="62.400000000000006" height="62.400000000000006" as="geometry" />
        </mxCell>
        <mxCell id="HNk5qBnJwfWYtbXmrRM9-18" value="&lt;font style=&quot;font-size: 15px;&quot;&gt;&lt;b&gt;RMI Client&lt;/b&gt;&lt;/font&gt;" style="image;points=[];aspect=fixed;html=1;align=center;shadow=0;dashed=0;image=img/lib/allied_telesis/computer_and_terminals/Personal_Computer_with_Server.svg;sketch=1;hachureGap=4;jiggle=2;curveFitting=1;fontFamily=Architects Daughter;fontSource=https%3A%2F%2Ffonts.googleapis.com%2Fcss%3Ffamily%3DArchitects%2BDaughter;fontSize=20;" parent="1" vertex="1">
          <mxGeometry x="1557.3" y="750" width="62.400000000000006" height="62.400000000000006" as="geometry" />
        </mxCell>
      </root>
    </mxGraphModel>
  </diagram>
  <diagram id="O_Y_sHkSmtddPWNaNFy5" name="Database Diagram">
    <mxGraphModel dx="4945" dy="2120" grid="1" gridSize="10" guides="1" tooltips="1" connect="1" arrows="1" fold="1" page="1" pageScale="1" pageWidth="827" pageHeight="1169" math="0" shadow="0">
      <root>
        <mxCell id="0" />
        <mxCell id="1" parent="0" />
        <mxCell id="-2Aa5-DBnPUxMg9QuQHP-35" value="" style="rounded=0;whiteSpace=wrap;html=1;hachureGap=4;fontFamily=Architects Daughter;fontSource=https%3A%2F%2Ffonts.googleapis.com%2Fcss%3Ffamily%3DArchitects%2BDaughter;fontSize=20;fillColor=#eeeeee;strokeColor=none;" parent="1" vertex="1">
          <mxGeometry x="-380" y="590" width="1700" height="220" as="geometry" />
        </mxCell>
        <mxCell id="-2Aa5-DBnPUxMg9QuQHP-1" value="departments" style="shape=table;startSize=30;container=1;collapsible=1;childLayout=tableLayout;fixedRows=1;rowLines=0;fontStyle=1;align=center;resizeLast=1;html=1;sketch=1;hachureGap=4;jiggle=2;curveFitting=1;fontFamily=Architects Daughter;fontSource=https%3A%2F%2Ffonts.googleapis.com%2Fcss%3Ffamily%3DArchitects%2BDaughter;fontSize=20;fillColor=#b0e3e6;strokeColor=#0e8088;" parent="1" vertex="1">
          <mxGeometry x="210" y="640" width="180" height="120" as="geometry" />
        </mxCell>
        <mxCell id="-2Aa5-DBnPUxMg9QuQHP-2" value="" style="shape=tableRow;horizontal=0;startSize=0;swimlaneHead=0;swimlaneBody=0;fillColor=#b0e3e6;collapsible=0;dropTarget=0;points=[[0,0.5],[1,0.5]];portConstraint=eastwest;top=0;left=0;right=0;bottom=1;sketch=1;hachureGap=4;jiggle=2;curveFitting=1;fontFamily=Architects Daughter;fontSource=https%3A%2F%2Ffonts.googleapis.com%2Fcss%3Ffamily%3DArchitects%2BDaughter;fontSize=20;strokeColor=#0e8088;" parent="-2Aa5-DBnPUxMg9QuQHP-1" vertex="1">
          <mxGeometry y="30" width="180" height="30" as="geometry" />
        </mxCell>
        <mxCell id="-2Aa5-DBnPUxMg9QuQHP-3" value="PK" style="shape=partialRectangle;connectable=0;fillColor=#b0e3e6;top=0;left=0;bottom=0;right=0;fontStyle=1;overflow=hidden;whiteSpace=wrap;html=1;sketch=1;hachureGap=4;jiggle=2;curveFitting=1;fontFamily=Architects Daughter;fontSource=https%3A%2F%2Ffonts.googleapis.com%2Fcss%3Ffamily%3DArchitects%2BDaughter;fontSize=20;strokeColor=#0e8088;" parent="-2Aa5-DBnPUxMg9QuQHP-2" vertex="1">
          <mxGeometry width="30" height="30" as="geometry">
            <mxRectangle width="30" height="30" as="alternateBounds" />
          </mxGeometry>
        </mxCell>
        <mxCell id="-2Aa5-DBnPUxMg9QuQHP-4" value="code" style="shape=partialRectangle;connectable=0;fillColor=#b0e3e6;top=0;left=0;bottom=0;right=0;align=left;spacingLeft=6;fontStyle=5;overflow=hidden;whiteSpace=wrap;html=1;sketch=1;hachureGap=4;jiggle=2;curveFitting=1;fontFamily=Architects Daughter;fontSource=https%3A%2F%2Ffonts.googleapis.com%2Fcss%3Ffamily%3DArchitects%2BDaughter;fontSize=20;strokeColor=#0e8088;" parent="-2Aa5-DBnPUxMg9QuQHP-2" vertex="1">
          <mxGeometry x="30" width="150" height="30" as="geometry">
            <mxRectangle width="150" height="30" as="alternateBounds" />
          </mxGeometry>
        </mxCell>
        <mxCell id="-2Aa5-DBnPUxMg9QuQHP-5" value="" style="shape=tableRow;horizontal=0;startSize=0;swimlaneHead=0;swimlaneBody=0;fillColor=#b0e3e6;collapsible=0;dropTarget=0;points=[[0,0.5],[1,0.5]];portConstraint=eastwest;top=0;left=0;right=0;bottom=0;sketch=1;hachureGap=4;jiggle=2;curveFitting=1;fontFamily=Architects Daughter;fontSource=https%3A%2F%2Ffonts.googleapis.com%2Fcss%3Ffamily%3DArchitects%2BDaughter;fontSize=20;strokeColor=#0e8088;" parent="-2Aa5-DBnPUxMg9QuQHP-1" vertex="1">
          <mxGeometry y="60" width="180" height="30" as="geometry" />
        </mxCell>
        <mxCell id="-2Aa5-DBnPUxMg9QuQHP-6" value="" style="shape=partialRectangle;connectable=0;fillColor=#b0e3e6;top=0;left=0;bottom=0;right=0;editable=1;overflow=hidden;whiteSpace=wrap;html=1;sketch=1;hachureGap=4;jiggle=2;curveFitting=1;fontFamily=Architects Daughter;fontSource=https%3A%2F%2Ffonts.googleapis.com%2Fcss%3Ffamily%3DArchitects%2BDaughter;fontSize=20;strokeColor=#0e8088;" parent="-2Aa5-DBnPUxMg9QuQHP-5" vertex="1">
          <mxGeometry width="30" height="30" as="geometry">
            <mxRectangle width="30" height="30" as="alternateBounds" />
          </mxGeometry>
        </mxCell>
        <mxCell id="-2Aa5-DBnPUxMg9QuQHP-7" value="name" style="shape=partialRectangle;connectable=0;fillColor=#b0e3e6;top=0;left=0;bottom=0;right=0;align=left;spacingLeft=6;overflow=hidden;whiteSpace=wrap;html=1;sketch=1;hachureGap=4;jiggle=2;curveFitting=1;fontFamily=Architects Daughter;fontSource=https%3A%2F%2Ffonts.googleapis.com%2Fcss%3Ffamily%3DArchitects%2BDaughter;fontSize=20;strokeColor=#0e8088;" parent="-2Aa5-DBnPUxMg9QuQHP-5" vertex="1">
          <mxGeometry x="30" width="150" height="30" as="geometry">
            <mxRectangle width="150" height="30" as="alternateBounds" />
          </mxGeometry>
        </mxCell>
        <mxCell id="-2Aa5-DBnPUxMg9QuQHP-8" value="" style="shape=tableRow;horizontal=0;startSize=0;swimlaneHead=0;swimlaneBody=0;fillColor=#b0e3e6;collapsible=0;dropTarget=0;points=[[0,0.5],[1,0.5]];portConstraint=eastwest;top=0;left=0;right=0;bottom=0;sketch=1;hachureGap=4;jiggle=2;curveFitting=1;fontFamily=Architects Daughter;fontSource=https%3A%2F%2Ffonts.googleapis.com%2Fcss%3Ffamily%3DArchitects%2BDaughter;fontSize=20;strokeColor=#0e8088;" parent="-2Aa5-DBnPUxMg9QuQHP-1" vertex="1">
          <mxGeometry y="90" width="180" height="30" as="geometry" />
        </mxCell>
        <mxCell id="-2Aa5-DBnPUxMg9QuQHP-9" value="" style="shape=partialRectangle;connectable=0;fillColor=#b0e3e6;top=0;left=0;bottom=0;right=0;editable=1;overflow=hidden;whiteSpace=wrap;html=1;sketch=1;hachureGap=4;jiggle=2;curveFitting=1;fontFamily=Architects Daughter;fontSource=https%3A%2F%2Ffonts.googleapis.com%2Fcss%3Ffamily%3DArchitects%2BDaughter;fontSize=20;strokeColor=#0e8088;" parent="-2Aa5-DBnPUxMg9QuQHP-8" vertex="1">
          <mxGeometry width="30" height="30" as="geometry">
            <mxRectangle width="30" height="30" as="alternateBounds" />
          </mxGeometry>
        </mxCell>
        <mxCell id="-2Aa5-DBnPUxMg9QuQHP-10" value="location" style="shape=partialRectangle;connectable=0;fillColor=#b0e3e6;top=0;left=0;bottom=0;right=0;align=left;spacingLeft=6;overflow=hidden;whiteSpace=wrap;html=1;sketch=1;hachureGap=4;jiggle=2;curveFitting=1;fontFamily=Architects Daughter;fontSource=https%3A%2F%2Ffonts.googleapis.com%2Fcss%3Ffamily%3DArchitects%2BDaughter;fontSize=20;strokeColor=#0e8088;" parent="-2Aa5-DBnPUxMg9QuQHP-8" vertex="1">
          <mxGeometry x="30" width="150" height="30" as="geometry">
            <mxRectangle width="150" height="30" as="alternateBounds" />
          </mxGeometry>
        </mxCell>
        <mxCell id="-2Aa5-DBnPUxMg9QuQHP-14" value="employees" style="shape=table;startSize=30;container=1;collapsible=1;childLayout=tableLayout;fixedRows=1;rowLines=0;fontStyle=1;align=center;resizeLast=1;html=1;sketch=1;hachureGap=4;jiggle=2;curveFitting=1;fontFamily=Architects Daughter;fontSource=https%3A%2F%2Ffonts.googleapis.com%2Fcss%3Ffamily%3DArchitects%2BDaughter;fontSize=20;fillColor=#b0e3e6;strokeColor=#0e8088;" parent="1" vertex="1">
          <mxGeometry x="480" y="610" width="220" height="180" as="geometry" />
        </mxCell>
        <mxCell id="-2Aa5-DBnPUxMg9QuQHP-15" value="" style="shape=tableRow;horizontal=0;startSize=0;swimlaneHead=0;swimlaneBody=0;fillColor=#b0e3e6;collapsible=0;dropTarget=0;points=[[0,0.5],[1,0.5]];portConstraint=eastwest;top=0;left=0;right=0;bottom=1;sketch=1;hachureGap=4;jiggle=2;curveFitting=1;fontFamily=Architects Daughter;fontSource=https%3A%2F%2Ffonts.googleapis.com%2Fcss%3Ffamily%3DArchitects%2BDaughter;fontSize=20;strokeColor=#0e8088;" parent="-2Aa5-DBnPUxMg9QuQHP-14" vertex="1">
          <mxGeometry y="30" width="220" height="30" as="geometry" />
        </mxCell>
        <mxCell id="-2Aa5-DBnPUxMg9QuQHP-16" value="PK" style="shape=partialRectangle;connectable=0;fillColor=#b0e3e6;top=0;left=0;bottom=0;right=0;fontStyle=1;overflow=hidden;whiteSpace=wrap;html=1;sketch=1;hachureGap=4;jiggle=2;curveFitting=1;fontFamily=Architects Daughter;fontSource=https%3A%2F%2Ffonts.googleapis.com%2Fcss%3Ffamily%3DArchitects%2BDaughter;fontSize=20;strokeColor=#0e8088;" parent="-2Aa5-DBnPUxMg9QuQHP-15" vertex="1">
          <mxGeometry width="30" height="30" as="geometry">
            <mxRectangle width="30" height="30" as="alternateBounds" />
          </mxGeometry>
        </mxCell>
        <mxCell id="-2Aa5-DBnPUxMg9QuQHP-17" value="code" style="shape=partialRectangle;connectable=0;fillColor=#b0e3e6;top=0;left=0;bottom=0;right=0;align=left;spacingLeft=6;fontStyle=5;overflow=hidden;whiteSpace=wrap;html=1;sketch=1;hachureGap=4;jiggle=2;curveFitting=1;fontFamily=Architects Daughter;fontSource=https%3A%2F%2Ffonts.googleapis.com%2Fcss%3Ffamily%3DArchitects%2BDaughter;fontSize=20;strokeColor=#0e8088;" parent="-2Aa5-DBnPUxMg9QuQHP-15" vertex="1">
          <mxGeometry x="30" width="190" height="30" as="geometry">
            <mxRectangle width="190" height="30" as="alternateBounds" />
          </mxGeometry>
        </mxCell>
        <mxCell id="-2Aa5-DBnPUxMg9QuQHP-30" value="" style="shape=tableRow;horizontal=0;startSize=0;swimlaneHead=0;swimlaneBody=0;fillColor=#b0e3e6;collapsible=0;dropTarget=0;points=[[0,0.5],[1,0.5]];portConstraint=eastwest;top=0;left=0;right=0;bottom=1;sketch=1;hachureGap=4;jiggle=2;curveFitting=1;fontFamily=Architects Daughter;fontSource=https%3A%2F%2Ffonts.googleapis.com%2Fcss%3Ffamily%3DArchitects%2BDaughter;fontSize=20;strokeColor=#0e8088;" parent="-2Aa5-DBnPUxMg9QuQHP-14" vertex="1">
          <mxGeometry y="60" width="220" height="30" as="geometry" />
        </mxCell>
        <mxCell id="-2Aa5-DBnPUxMg9QuQHP-31" value="FK" style="shape=partialRectangle;connectable=0;fillColor=#b0e3e6;top=0;left=0;bottom=0;right=0;fontStyle=1;overflow=hidden;whiteSpace=wrap;html=1;sketch=1;hachureGap=4;jiggle=2;curveFitting=1;fontFamily=Architects Daughter;fontSource=https%3A%2F%2Ffonts.googleapis.com%2Fcss%3Ffamily%3DArchitects%2BDaughter;fontSize=20;strokeColor=#0e8088;" parent="-2Aa5-DBnPUxMg9QuQHP-30" vertex="1">
          <mxGeometry width="30" height="30" as="geometry">
            <mxRectangle width="30" height="30" as="alternateBounds" />
          </mxGeometry>
        </mxCell>
        <mxCell id="-2Aa5-DBnPUxMg9QuQHP-32" value="department_code" style="shape=partialRectangle;connectable=0;fillColor=#b0e3e6;top=0;left=0;bottom=0;right=0;align=left;spacingLeft=6;fontStyle=5;overflow=hidden;whiteSpace=wrap;html=1;sketch=1;hachureGap=4;jiggle=2;curveFitting=1;fontFamily=Architects Daughter;fontSource=https%3A%2F%2Ffonts.googleapis.com%2Fcss%3Ffamily%3DArchitects%2BDaughter;fontSize=20;strokeColor=#0e8088;" parent="-2Aa5-DBnPUxMg9QuQHP-30" vertex="1">
          <mxGeometry x="30" width="190" height="30" as="geometry">
            <mxRectangle width="190" height="30" as="alternateBounds" />
          </mxGeometry>
        </mxCell>
        <mxCell id="-2Aa5-DBnPUxMg9QuQHP-27" value="" style="shape=tableRow;horizontal=0;startSize=0;swimlaneHead=0;swimlaneBody=0;fillColor=#b0e3e6;collapsible=0;dropTarget=0;points=[[0,0.5],[1,0.5]];portConstraint=eastwest;top=0;left=0;right=0;bottom=0;sketch=1;hachureGap=4;jiggle=2;curveFitting=1;fontFamily=Architects Daughter;fontSource=https%3A%2F%2Ffonts.googleapis.com%2Fcss%3Ffamily%3DArchitects%2BDaughter;fontSize=20;strokeColor=#0e8088;" parent="-2Aa5-DBnPUxMg9QuQHP-14" vertex="1">
          <mxGeometry y="90" width="220" height="30" as="geometry" />
        </mxCell>
        <mxCell id="-2Aa5-DBnPUxMg9QuQHP-28" value="" style="shape=partialRectangle;connectable=0;fillColor=#b0e3e6;top=0;left=0;bottom=0;right=0;editable=1;overflow=hidden;whiteSpace=wrap;html=1;sketch=1;hachureGap=4;jiggle=2;curveFitting=1;fontFamily=Architects Daughter;fontSource=https%3A%2F%2Ffonts.googleapis.com%2Fcss%3Ffamily%3DArchitects%2BDaughter;fontSize=20;strokeColor=#0e8088;" parent="-2Aa5-DBnPUxMg9QuQHP-27" vertex="1">
          <mxGeometry width="30" height="30" as="geometry">
            <mxRectangle width="30" height="30" as="alternateBounds" />
          </mxGeometry>
        </mxCell>
        <mxCell id="-2Aa5-DBnPUxMg9QuQHP-29" value="name" style="shape=partialRectangle;connectable=0;fillColor=#b0e3e6;top=0;left=0;bottom=0;right=0;align=left;spacingLeft=6;overflow=hidden;whiteSpace=wrap;html=1;sketch=1;hachureGap=4;jiggle=2;curveFitting=1;fontFamily=Architects Daughter;fontSource=https%3A%2F%2Ffonts.googleapis.com%2Fcss%3Ffamily%3DArchitects%2BDaughter;fontSize=20;strokeColor=#0e8088;" parent="-2Aa5-DBnPUxMg9QuQHP-27" vertex="1">
          <mxGeometry x="30" width="190" height="30" as="geometry">
            <mxRectangle width="190" height="30" as="alternateBounds" />
          </mxGeometry>
        </mxCell>
        <mxCell id="-2Aa5-DBnPUxMg9QuQHP-24" value="" style="shape=tableRow;horizontal=0;startSize=0;swimlaneHead=0;swimlaneBody=0;fillColor=#b0e3e6;collapsible=0;dropTarget=0;points=[[0,0.5],[1,0.5]];portConstraint=eastwest;top=0;left=0;right=0;bottom=0;sketch=1;hachureGap=4;jiggle=2;curveFitting=1;fontFamily=Architects Daughter;fontSource=https%3A%2F%2Ffonts.googleapis.com%2Fcss%3Ffamily%3DArchitects%2BDaughter;fontSize=20;strokeColor=#0e8088;" parent="-2Aa5-DBnPUxMg9QuQHP-14" vertex="1">
          <mxGeometry y="120" width="220" height="30" as="geometry" />
        </mxCell>
        <mxCell id="-2Aa5-DBnPUxMg9QuQHP-25" value="" style="shape=partialRectangle;connectable=0;fillColor=#b0e3e6;top=0;left=0;bottom=0;right=0;editable=1;overflow=hidden;whiteSpace=wrap;html=1;sketch=1;hachureGap=4;jiggle=2;curveFitting=1;fontFamily=Architects Daughter;fontSource=https%3A%2F%2Ffonts.googleapis.com%2Fcss%3Ffamily%3DArchitects%2BDaughter;fontSize=20;strokeColor=#0e8088;" parent="-2Aa5-DBnPUxMg9QuQHP-24" vertex="1">
          <mxGeometry width="30" height="30" as="geometry">
            <mxRectangle width="30" height="30" as="alternateBounds" />
          </mxGeometry>
        </mxCell>
        <mxCell id="-2Aa5-DBnPUxMg9QuQHP-26" value="contract_date" style="shape=partialRectangle;connectable=0;fillColor=#b0e3e6;top=0;left=0;bottom=0;right=0;align=left;spacingLeft=6;overflow=hidden;whiteSpace=wrap;html=1;sketch=1;hachureGap=4;jiggle=2;curveFitting=1;fontFamily=Architects Daughter;fontSource=https%3A%2F%2Ffonts.googleapis.com%2Fcss%3Ffamily%3DArchitects%2BDaughter;fontSize=20;strokeColor=#0e8088;" parent="-2Aa5-DBnPUxMg9QuQHP-24" vertex="1">
          <mxGeometry x="30" width="190" height="30" as="geometry">
            <mxRectangle width="190" height="30" as="alternateBounds" />
          </mxGeometry>
        </mxCell>
        <mxCell id="-2Aa5-DBnPUxMg9QuQHP-18" value="" style="shape=tableRow;horizontal=0;startSize=0;swimlaneHead=0;swimlaneBody=0;fillColor=#b0e3e6;collapsible=0;dropTarget=0;points=[[0,0.5],[1,0.5]];portConstraint=eastwest;top=0;left=0;right=0;bottom=0;sketch=1;hachureGap=4;jiggle=2;curveFitting=1;fontFamily=Architects Daughter;fontSource=https%3A%2F%2Ffonts.googleapis.com%2Fcss%3Ffamily%3DArchitects%2BDaughter;fontSize=20;strokeColor=#0e8088;" parent="-2Aa5-DBnPUxMg9QuQHP-14" vertex="1">
          <mxGeometry y="150" width="220" height="30" as="geometry" />
        </mxCell>
        <mxCell id="-2Aa5-DBnPUxMg9QuQHP-19" value="" style="shape=partialRectangle;connectable=0;fillColor=#b0e3e6;top=0;left=0;bottom=0;right=0;editable=1;overflow=hidden;whiteSpace=wrap;html=1;sketch=1;hachureGap=4;jiggle=2;curveFitting=1;fontFamily=Architects Daughter;fontSource=https%3A%2F%2Ffonts.googleapis.com%2Fcss%3Ffamily%3DArchitects%2BDaughter;fontSize=20;strokeColor=#0e8088;" parent="-2Aa5-DBnPUxMg9QuQHP-18" vertex="1">
          <mxGeometry width="30" height="30" as="geometry">
            <mxRectangle width="30" height="30" as="alternateBounds" />
          </mxGeometry>
        </mxCell>
        <mxCell id="-2Aa5-DBnPUxMg9QuQHP-20" value="contract_type" style="shape=partialRectangle;connectable=0;fillColor=#b0e3e6;top=0;left=0;bottom=0;right=0;align=left;spacingLeft=6;overflow=hidden;whiteSpace=wrap;html=1;sketch=1;hachureGap=4;jiggle=2;curveFitting=1;fontFamily=Architects Daughter;fontSource=https%3A%2F%2Ffonts.googleapis.com%2Fcss%3Ffamily%3DArchitects%2BDaughter;fontSize=20;strokeColor=#0e8088;" parent="-2Aa5-DBnPUxMg9QuQHP-18" vertex="1">
          <mxGeometry x="30" width="190" height="30" as="geometry">
            <mxRectangle width="190" height="30" as="alternateBounds" />
          </mxGeometry>
        </mxCell>
        <mxCell id="-2Aa5-DBnPUxMg9QuQHP-33" style="edgeStyle=orthogonalEdgeStyle;rounded=0;sketch=1;hachureGap=4;jiggle=2;curveFitting=1;orthogonalLoop=1;jettySize=auto;html=1;entryX=0;entryY=0.5;entryDx=0;entryDy=0;fontFamily=Architects Daughter;fontSource=https%3A%2F%2Ffonts.googleapis.com%2Fcss%3Ffamily%3DArchitects%2BDaughter;fontSize=16;endArrow=ERoneToMany;endFill=0;startArrow=ERone;startFill=0;endSize=12;startSize=12;fillColor=#b0e3e6;strokeColor=#0e8088;" parent="1" source="-2Aa5-DBnPUxMg9QuQHP-2" target="-2Aa5-DBnPUxMg9QuQHP-30" edge="1">
          <mxGeometry relative="1" as="geometry" />
        </mxCell>
      </root>
    </mxGraphModel>
  </diagram>
  <diagram id="uLsXKuujlwqM6aMoCdCx" name="Server-Client">
    <mxGraphModel dx="1963" dy="585" grid="1" gridSize="10" guides="1" tooltips="1" connect="1" arrows="1" fold="1" page="1" pageScale="1" pageWidth="827" pageHeight="1169" math="0" shadow="0">
      <root>
        <mxCell id="0" />
        <mxCell id="1" parent="0" />
        <mxCell id="Exw5P39fcwtjDn4KLBZY-1" value="" style="rounded=0;whiteSpace=wrap;html=1;hachureGap=4;fontFamily=Architects Daughter;fontSource=https%3A%2F%2Ffonts.googleapis.com%2Fcss%3Ffamily%3DArchitects%2BDaughter;fontSize=20;fillColor=#eeeeee;strokeColor=none;fontColor=#ae4132;" vertex="1" parent="1">
          <mxGeometry x="-460" y="520" width="1900" height="400" as="geometry" />
        </mxCell>
        <mxCell id="ZWCUkII7dlj4m6y8cMO8-1" value="" style="group" vertex="1" connectable="0" parent="1">
          <mxGeometry x="90" y="670" width="259" height="80" as="geometry" />
        </mxCell>
        <mxCell id="ZWCUkII7dlj4m6y8cMO8-2" value="&lt;b style=&quot;font-size: 15px;&quot;&gt;&lt;font color=&quot;#cc0000&quot;&gt;EmployeeApplication&lt;/font&gt;&lt;/b&gt;" style="text;html=1;align=center;verticalAlign=middle;resizable=0;points=[];autosize=1;strokeColor=none;fillColor=none;fontSize=15;fontFamily=Architects Daughter;" vertex="1" parent="ZWCUkII7dlj4m6y8cMO8-1">
          <mxGeometry x="59" y="20" width="160" height="30" as="geometry" />
        </mxCell>
        <mxCell id="ZWCUkII7dlj4m6y8cMO8-3" value="" style="verticalLabelPosition=bottom;sketch=0;aspect=fixed;html=1;verticalAlign=top;strokeColor=none;align=center;outlineConnect=0;shape=mxgraph.citrix.tower_server;hachureGap=4;jiggle=2;curveFitting=1;fontFamily=Architects Daughter;fontSource=https%3A%2F%2Ffonts.googleapis.com%2Fcss%3Ffamily%3DArchitects%2BDaughter;fontSize=20;" vertex="1" parent="ZWCUkII7dlj4m6y8cMO8-1">
          <mxGeometry y="8" width="45" height="58.85" as="geometry" />
        </mxCell>
        <mxCell id="0v8VZjJHQSZgOTmK6D6H-1" value="" style="group" vertex="1" connectable="0" parent="1">
          <mxGeometry x="602.5" y="730" width="259" height="80" as="geometry" />
        </mxCell>
        <mxCell id="0v8VZjJHQSZgOTmK6D6H-2" value="&lt;font color=&quot;#cc0000&quot;&gt;&lt;b style=&quot;font-size: 15px;&quot;&gt;DepartmentRMIApplication&lt;/b&gt;&lt;/font&gt;" style="text;html=1;align=left;verticalAlign=middle;resizable=0;points=[];autosize=1;strokeColor=none;fillColor=none;fontSize=15;fontFamily=Architects Daughter;" vertex="1" parent="0v8VZjJHQSZgOTmK6D6H-1">
          <mxGeometry x="59" y="20" width="200" height="30" as="geometry" />
        </mxCell>
        <mxCell id="0v8VZjJHQSZgOTmK6D6H-3" value="" style="verticalLabelPosition=bottom;sketch=0;aspect=fixed;html=1;verticalAlign=top;strokeColor=none;align=center;outlineConnect=0;shape=mxgraph.citrix.tower_server;hachureGap=4;jiggle=2;curveFitting=1;fontFamily=Architects Daughter;fontSource=https%3A%2F%2Ffonts.googleapis.com%2Fcss%3Ffamily%3DArchitects%2BDaughter;fontSize=20;" vertex="1" parent="0v8VZjJHQSZgOTmK6D6H-1">
          <mxGeometry y="8" width="45" height="58.85" as="geometry" />
        </mxCell>
        <mxCell id="0v8VZjJHQSZgOTmK6D6H-4" value="" style="group" vertex="1" connectable="0" parent="1">
          <mxGeometry x="600" y="550" width="264" height="90" as="geometry" />
        </mxCell>
        <mxCell id="0v8VZjJHQSZgOTmK6D6H-5" value="&lt;b style=&quot;font-size: 15px;&quot;&gt;&lt;font color=&quot;#cc0000&quot;&gt;DepartmentTCPApplication&lt;/font&gt;&lt;/b&gt;" style="text;html=1;align=left;verticalAlign=middle;resizable=0;points=[];autosize=1;strokeColor=none;fillColor=none;fontSize=15;fontFamily=Architects Daughter;" vertex="1" parent="0v8VZjJHQSZgOTmK6D6H-4">
          <mxGeometry x="54" y="30" width="210" height="30" as="geometry" />
        </mxCell>
        <mxCell id="0v8VZjJHQSZgOTmK6D6H-6" value="" style="verticalLabelPosition=bottom;sketch=0;aspect=fixed;html=1;verticalAlign=top;strokeColor=none;align=center;outlineConnect=0;shape=mxgraph.citrix.tower_server;hachureGap=4;jiggle=2;curveFitting=1;fontFamily=Architects Daughter;fontSource=https%3A%2F%2Ffonts.googleapis.com%2Fcss%3Ffamily%3DArchitects%2BDaughter;fontSize=20;" vertex="1" parent="0v8VZjJHQSZgOTmK6D6H-4">
          <mxGeometry y="17" width="45" height="58.85" as="geometry" />
        </mxCell>
        <mxCell id="4oDnZL1CioS8mAldFl4V-1" value="" style="endArrow=none;startArrow=classic;html=1;rounded=0;sketch=1;hachureGap=4;jiggle=2;curveFitting=1;fontFamily=Architects Daughter;fontSource=https%3A%2F%2Ffonts.googleapis.com%2Fcss%3Ffamily%3DArchitects%2BDaughter;fontSize=16;fillColor=#fad9d5;strokeColor=#ae4132;dashed=1;startFill=1;endFill=0;strokeWidth=2;" edge="1" parent="1">
          <mxGeometry width="50" height="50" relative="1" as="geometry">
            <mxPoint x="587" y="596" as="sourcePoint" />
            <mxPoint x="311" y="704" as="targetPoint" />
          </mxGeometry>
        </mxCell>
        <mxCell id="shVfFvqYW57IVsybGuDz-1" value="&lt;font style=&quot;font-size: 16px;&quot;&gt;TCP&lt;/font&gt;" style="edgeLabel;html=1;align=center;verticalAlign=middle;resizable=0;points=[];sketch=1;hachureGap=4;jiggle=2;curveFitting=1;fontFamily=Architects Daughter;fontSource=https%3A%2F%2Ffonts.googleapis.com%2Fcss%3Ffamily%3DArchitects%2BDaughter;labelBackgroundColor=none;fontColor=#ae4132;fontStyle=1;fontSize=16;" vertex="1" connectable="0" parent="4oDnZL1CioS8mAldFl4V-1">
          <mxGeometry x="-0.5425" y="1" relative="1" as="geometry">
            <mxPoint x="-31" y="32" as="offset" />
          </mxGeometry>
        </mxCell>
        <mxCell id="4oDnZL1CioS8mAldFl4V-4" value="" style="endArrow=none;startArrow=classic;html=1;rounded=0;sketch=1;hachureGap=4;jiggle=2;curveFitting=1;fontFamily=Architects Daughter;fontSource=https%3A%2F%2Ffonts.googleapis.com%2Fcss%3Ffamily%3DArchitects%2BDaughter;fontSize=16;fillColor=#fad9d5;strokeColor=#ae4132;dashed=1;startFill=1;endFill=0;strokeWidth=2;" edge="1" parent="1">
          <mxGeometry width="50" height="50" relative="1" as="geometry">
            <mxPoint x="576" y="771" as="sourcePoint" />
            <mxPoint x="313" y="712" as="targetPoint" />
          </mxGeometry>
        </mxCell>
        <mxCell id="4oDnZL1CioS8mAldFl4V-5" value="" style="shape=image;html=1;verticalAlign=top;verticalLabelPosition=bottom;labelBackgroundColor=#ffffff;imageAspect=0;aspect=fixed;image=https://cdn2.iconfinder.com/data/icons/whcompare-servers-web-hosting/50/dedicated-ip-address-128.png;align=center;fontFamily=Architects Daughter;fontSource=https%3A%2F%2Ffonts.googleapis.com%2Fcss%3Ffamily%3DArchitects%2BDaughter;fontSize=14;" vertex="1" parent="1">
          <mxGeometry x="436" y="631" width="37" height="37" as="geometry" />
        </mxCell>
        <mxCell id="4oDnZL1CioS8mAldFl4V-7" value="&lt;font style=&quot;font-size: 15px;&quot;&gt;localhost : 5000&lt;/font&gt;" style="text;html=1;align=center;verticalAlign=middle;resizable=0;points=[];autosize=1;strokeColor=none;fillColor=none;fontFamily=Architects Daughter;fontSource=https%3A%2F%2Ffonts.googleapis.com%2Fcss%3Ffamily%3DArchitects%2BDaughter;fontSize=20;fontStyle=1" vertex="1" parent="1">
          <mxGeometry x="374" y="591" width="140" height="40" as="geometry" />
        </mxCell>
        <mxCell id="4oDnZL1CioS8mAldFl4V-8" value="&lt;font style=&quot;font-size: 15px;&quot;&gt;localhost : 5001&lt;/font&gt;" style="text;html=1;align=center;verticalAlign=middle;resizable=0;points=[];autosize=1;strokeColor=none;fillColor=none;fontFamily=Architects Daughter;fontSource=https%3A%2F%2Ffonts.googleapis.com%2Fcss%3Ffamily%3DArchitects%2BDaughter;fontSize=20;fontStyle=1" vertex="1" parent="1">
          <mxGeometry x="384" y="760" width="130" height="40" as="geometry" />
        </mxCell>
        <mxCell id="4oDnZL1CioS8mAldFl4V-9" value="" style="shape=image;html=1;verticalAlign=top;verticalLabelPosition=bottom;labelBackgroundColor=#ffffff;imageAspect=0;aspect=fixed;image=https://cdn2.iconfinder.com/data/icons/whcompare-servers-web-hosting/50/dedicated-ip-address-128.png;align=center;fontFamily=Architects Daughter;fontSource=https%3A%2F%2Ffonts.googleapis.com%2Fcss%3Ffamily%3DArchitects%2BDaughter;fontSize=14;" vertex="1" parent="1">
          <mxGeometry x="436" y="723" width="37" height="37" as="geometry" />
        </mxCell>
        <mxCell id="4oDnZL1CioS8mAldFl4V-49" value="" style="shape=table;startSize=0;container=1;collapsible=0;childLayout=tableLayout;fontSize=14;sketch=1;hachureGap=4;jiggle=2;curveFitting=1;fontFamily=Architects Daughter;fontSource=https%3A%2F%2Ffonts.googleapis.com%2Fcss%3Ffamily%3DArchitects%2BDaughter;fillColor=#b0e3e6;strokeColor=#0e8088;" vertex="1" parent="1">
          <mxGeometry x="659" y="611" width="610.5" height="107.94" as="geometry" />
        </mxCell>
        <mxCell id="4oDnZL1CioS8mAldFl4V-50" value="" style="shape=tableRow;horizontal=0;startSize=0;swimlaneHead=0;swimlaneBody=0;strokeColor=inherit;top=0;left=0;bottom=0;right=0;collapsible=0;dropTarget=0;fillColor=none;points=[[0,0.5],[1,0.5]];portConstraint=eastwest;fontSize=14;sketch=1;hachureGap=4;jiggle=2;curveFitting=1;fontFamily=Architects Daughter;fontSource=https%3A%2F%2Ffonts.googleapis.com%2Fcss%3Ffamily%3DArchitects%2BDaughter;" vertex="1" parent="4oDnZL1CioS8mAldFl4V-49">
          <mxGeometry width="610.5" height="27" as="geometry" />
        </mxCell>
        <mxCell id="4oDnZL1CioS8mAldFl4V-51" value="&lt;b style=&quot;font-size: 14px;&quot;&gt;Tipo&lt;/b&gt;" style="shape=partialRectangle;html=1;whiteSpace=wrap;connectable=0;strokeColor=#0e8088;overflow=hidden;fillColor=#b0e3e6;top=0;left=0;bottom=0;right=0;pointerEvents=1;fontSize=14;sketch=1;hachureGap=4;jiggle=2;curveFitting=1;fontFamily=Architects Daughter;fontSource=https%3A%2F%2Ffonts.googleapis.com%2Fcss%3Ffamily%3DArchitects%2BDaughter;" vertex="1" parent="4oDnZL1CioS8mAldFl4V-50">
          <mxGeometry width="67" height="27" as="geometry">
            <mxRectangle width="67" height="27" as="alternateBounds" />
          </mxGeometry>
        </mxCell>
        <mxCell id="4oDnZL1CioS8mAldFl4V-52" value="&lt;b style=&quot;font-size: 14px;&quot;&gt;Operación&lt;/b&gt;" style="shape=partialRectangle;html=1;whiteSpace=wrap;connectable=0;strokeColor=#0e8088;overflow=hidden;fillColor=#b0e3e6;top=0;left=0;bottom=0;right=0;pointerEvents=1;fontSize=14;sketch=1;hachureGap=4;jiggle=2;curveFitting=1;fontFamily=Architects Daughter;fontSource=https%3A%2F%2Ffonts.googleapis.com%2Fcss%3Ffamily%3DArchitects%2BDaughter;" vertex="1" parent="4oDnZL1CioS8mAldFl4V-50">
          <mxGeometry x="67" width="107" height="27" as="geometry">
            <mxRectangle width="107" height="27" as="alternateBounds" />
          </mxGeometry>
        </mxCell>
        <mxCell id="4oDnZL1CioS8mAldFl4V-53" value="&lt;b style=&quot;font-size: 14px;&quot;&gt;Descripción&lt;/b&gt;" style="shape=partialRectangle;html=1;whiteSpace=wrap;connectable=0;strokeColor=#0e8088;overflow=hidden;fillColor=#b0e3e6;top=0;left=0;bottom=0;right=0;pointerEvents=1;fontSize=14;sketch=1;hachureGap=4;jiggle=2;curveFitting=1;fontFamily=Architects Daughter;fontSource=https%3A%2F%2Ffonts.googleapis.com%2Fcss%3Ffamily%3DArchitects%2BDaughter;" vertex="1" parent="4oDnZL1CioS8mAldFl4V-50">
          <mxGeometry x="174" width="437" height="27" as="geometry">
            <mxRectangle width="437" height="27" as="alternateBounds" />
          </mxGeometry>
        </mxCell>
        <mxCell id="4oDnZL1CioS8mAldFl4V-54" value="" style="shape=tableRow;horizontal=0;startSize=0;swimlaneHead=0;swimlaneBody=0;strokeColor=inherit;top=0;left=0;bottom=0;right=0;collapsible=0;dropTarget=0;fillColor=none;points=[[0,0.5],[1,0.5]];portConstraint=eastwest;fontSize=14;sketch=1;hachureGap=4;jiggle=2;curveFitting=1;fontFamily=Architects Daughter;fontSource=https%3A%2F%2Ffonts.googleapis.com%2Fcss%3Ffamily%3DArchitects%2BDaughter;" vertex="1" parent="4oDnZL1CioS8mAldFl4V-49">
          <mxGeometry y="27" width="610.5" height="39" as="geometry" />
        </mxCell>
        <mxCell id="4oDnZL1CioS8mAldFl4V-55" value="Lectura" style="shape=partialRectangle;html=1;whiteSpace=wrap;connectable=0;strokeColor=inherit;overflow=hidden;fillColor=none;top=0;left=0;bottom=0;right=0;pointerEvents=1;fontSize=14;sketch=1;hachureGap=4;jiggle=2;curveFitting=1;fontFamily=Architects Daughter;fontSource=https%3A%2F%2Ffonts.googleapis.com%2Fcss%3Ffamily%3DArchitects%2BDaughter;" vertex="1" parent="4oDnZL1CioS8mAldFl4V-54">
          <mxGeometry width="67" height="39" as="geometry">
            <mxRectangle width="67" height="39" as="alternateBounds" />
          </mxGeometry>
        </mxCell>
        <mxCell id="4oDnZL1CioS8mAldFl4V-56" value="findAll" style="shape=partialRectangle;html=1;whiteSpace=wrap;connectable=0;strokeColor=inherit;overflow=hidden;fillColor=none;top=0;left=0;bottom=0;right=0;pointerEvents=1;fontSize=14;sketch=1;hachureGap=4;jiggle=2;curveFitting=1;fontFamily=Architects Daughter;fontSource=https%3A%2F%2Ffonts.googleapis.com%2Fcss%3Ffamily%3DArchitects%2BDaughter;" vertex="1" parent="4oDnZL1CioS8mAldFl4V-54">
          <mxGeometry x="67" width="107" height="39" as="geometry">
            <mxRectangle width="107" height="39" as="alternateBounds" />
          </mxGeometry>
        </mxCell>
        <mxCell id="4oDnZL1CioS8mAldFl4V-57" value="&amp;nbsp;Recupera todos los departamentos.&lt;br&gt;&amp;nbsp;&lt;b&gt;&lt;font color=&quot;#3399ff&quot;&gt;Código de operación TCP = 1&lt;/font&gt;&lt;/b&gt;" style="shape=partialRectangle;html=1;whiteSpace=wrap;connectable=0;strokeColor=inherit;overflow=hidden;fillColor=none;top=0;left=0;bottom=0;right=0;pointerEvents=1;fontSize=14;sketch=1;hachureGap=4;jiggle=2;curveFitting=1;fontFamily=Architects Daughter;fontSource=https%3A%2F%2Ffonts.googleapis.com%2Fcss%3Ffamily%3DArchitects%2BDaughter;align=left;" vertex="1" parent="4oDnZL1CioS8mAldFl4V-54">
          <mxGeometry x="174" width="437" height="39" as="geometry">
            <mxRectangle width="437" height="39" as="alternateBounds" />
          </mxGeometry>
        </mxCell>
        <mxCell id="4oDnZL1CioS8mAldFl4V-58" value="" style="shape=tableRow;horizontal=0;startSize=0;swimlaneHead=0;swimlaneBody=0;strokeColor=inherit;top=0;left=0;bottom=0;right=0;collapsible=0;dropTarget=0;fillColor=none;points=[[0,0.5],[1,0.5]];portConstraint=eastwest;fontSize=14;sketch=1;hachureGap=4;jiggle=2;curveFitting=1;fontFamily=Architects Daughter;fontSource=https%3A%2F%2Ffonts.googleapis.com%2Fcss%3Ffamily%3DArchitects%2BDaughter;" vertex="1" parent="4oDnZL1CioS8mAldFl4V-49">
          <mxGeometry y="66" width="610.5" height="42" as="geometry" />
        </mxCell>
        <mxCell id="4oDnZL1CioS8mAldFl4V-59" value="Lectura" style="shape=partialRectangle;html=1;whiteSpace=wrap;connectable=0;strokeColor=inherit;overflow=hidden;fillColor=none;top=0;left=0;bottom=0;right=0;pointerEvents=1;fontSize=14;sketch=1;hachureGap=4;jiggle=2;curveFitting=1;fontFamily=Architects Daughter;fontSource=https%3A%2F%2Ffonts.googleapis.com%2Fcss%3Ffamily%3DArchitects%2BDaughter;" vertex="1" parent="4oDnZL1CioS8mAldFl4V-58">
          <mxGeometry width="67" height="42" as="geometry">
            <mxRectangle width="67" height="42" as="alternateBounds" />
          </mxGeometry>
        </mxCell>
        <mxCell id="4oDnZL1CioS8mAldFl4V-60" value="findByCode" style="shape=partialRectangle;html=1;whiteSpace=wrap;connectable=0;strokeColor=inherit;overflow=hidden;fillColor=none;top=0;left=0;bottom=0;right=0;pointerEvents=1;fontSize=14;sketch=1;hachureGap=4;jiggle=2;curveFitting=1;fontFamily=Architects Daughter;fontSource=https%3A%2F%2Ffonts.googleapis.com%2Fcss%3Ffamily%3DArchitects%2BDaughter;" vertex="1" parent="4oDnZL1CioS8mAldFl4V-58">
          <mxGeometry x="67" width="107" height="42" as="geometry">
            <mxRectangle width="107" height="42" as="alternateBounds" />
          </mxGeometry>
        </mxCell>
        <mxCell id="4oDnZL1CioS8mAldFl4V-61" value="&amp;nbsp;Recupera un departamento mediante su código de departamento.&lt;br&gt;&lt;font style=&quot;&quot;&gt;&amp;nbsp;&lt;/font&gt;&lt;font style=&quot;font-weight: bold;&quot; color=&quot;#3399ff&quot;&gt;Código de operación TCP = 2&lt;/font&gt;" style="shape=partialRectangle;html=1;whiteSpace=wrap;connectable=0;strokeColor=inherit;overflow=hidden;fillColor=none;top=0;left=0;bottom=0;right=0;pointerEvents=1;fontSize=14;sketch=1;hachureGap=4;jiggle=2;curveFitting=1;fontFamily=Architects Daughter;fontSource=https%3A%2F%2Ffonts.googleapis.com%2Fcss%3Ffamily%3DArchitects%2BDaughter;align=left;" vertex="1" parent="4oDnZL1CioS8mAldFl4V-58">
          <mxGeometry x="174" width="437" height="42" as="geometry">
            <mxRectangle width="437" height="42" as="alternateBounds" />
          </mxGeometry>
        </mxCell>
        <mxCell id="4oDnZL1CioS8mAldFl4V-63" value="" style="shape=table;startSize=0;container=1;collapsible=0;childLayout=tableLayout;fontSize=14;sketch=1;hachureGap=4;jiggle=2;curveFitting=1;fontFamily=Architects Daughter;fontSource=https%3A%2F%2Ffonts.googleapis.com%2Fcss%3Ffamily%3DArchitects%2BDaughter;fillColor=#b0e3e6;strokeColor=#0e8088;" vertex="1" parent="1">
          <mxGeometry x="659" y="780" width="610.5" height="80.4638095238094" as="geometry" />
        </mxCell>
        <mxCell id="4oDnZL1CioS8mAldFl4V-64" value="" style="shape=tableRow;horizontal=0;startSize=0;swimlaneHead=0;swimlaneBody=0;strokeColor=inherit;top=0;left=0;bottom=0;right=0;collapsible=0;dropTarget=0;fillColor=none;points=[[0,0.5],[1,0.5]];portConstraint=eastwest;fontSize=14;sketch=1;hachureGap=4;jiggle=2;curveFitting=1;fontFamily=Architects Daughter;fontSource=https%3A%2F%2Ffonts.googleapis.com%2Fcss%3Ffamily%3DArchitects%2BDaughter;" vertex="1" parent="4oDnZL1CioS8mAldFl4V-63">
          <mxGeometry width="610.5" height="27" as="geometry" />
        </mxCell>
        <mxCell id="4oDnZL1CioS8mAldFl4V-65" value="&lt;b style=&quot;font-size: 14px;&quot;&gt;Tipo&lt;/b&gt;" style="shape=partialRectangle;html=1;whiteSpace=wrap;connectable=0;strokeColor=#0e8088;overflow=hidden;fillColor=#b0e3e6;top=0;left=0;bottom=0;right=0;pointerEvents=1;fontSize=14;sketch=1;hachureGap=4;jiggle=2;curveFitting=1;fontFamily=Architects Daughter;fontSource=https%3A%2F%2Ffonts.googleapis.com%2Fcss%3Ffamily%3DArchitects%2BDaughter;" vertex="1" parent="4oDnZL1CioS8mAldFl4V-64">
          <mxGeometry width="67" height="27" as="geometry">
            <mxRectangle width="67" height="27" as="alternateBounds" />
          </mxGeometry>
        </mxCell>
        <mxCell id="4oDnZL1CioS8mAldFl4V-66" value="&lt;b style=&quot;font-size: 14px;&quot;&gt;Operación&lt;/b&gt;" style="shape=partialRectangle;html=1;whiteSpace=wrap;connectable=0;strokeColor=#0e8088;overflow=hidden;fillColor=#b0e3e6;top=0;left=0;bottom=0;right=0;pointerEvents=1;fontSize=14;sketch=1;hachureGap=4;jiggle=2;curveFitting=1;fontFamily=Architects Daughter;fontSource=https%3A%2F%2Ffonts.googleapis.com%2Fcss%3Ffamily%3DArchitects%2BDaughter;" vertex="1" parent="4oDnZL1CioS8mAldFl4V-64">
          <mxGeometry x="67" width="107" height="27" as="geometry">
            <mxRectangle width="107" height="27" as="alternateBounds" />
          </mxGeometry>
        </mxCell>
        <mxCell id="4oDnZL1CioS8mAldFl4V-67" value="&lt;b style=&quot;font-size: 14px;&quot;&gt;Descripción&lt;/b&gt;" style="shape=partialRectangle;html=1;whiteSpace=wrap;connectable=0;strokeColor=#0e8088;overflow=hidden;fillColor=#b0e3e6;top=0;left=0;bottom=0;right=0;pointerEvents=1;fontSize=14;sketch=1;hachureGap=4;jiggle=2;curveFitting=1;fontFamily=Architects Daughter;fontSource=https%3A%2F%2Ffonts.googleapis.com%2Fcss%3Ffamily%3DArchitects%2BDaughter;" vertex="1" parent="4oDnZL1CioS8mAldFl4V-64">
          <mxGeometry x="174" width="437" height="27" as="geometry">
            <mxRectangle width="437" height="27" as="alternateBounds" />
          </mxGeometry>
        </mxCell>
        <mxCell id="4oDnZL1CioS8mAldFl4V-68" value="" style="shape=tableRow;horizontal=0;startSize=0;swimlaneHead=0;swimlaneBody=0;strokeColor=inherit;top=0;left=0;bottom=0;right=0;collapsible=0;dropTarget=0;fillColor=none;points=[[0,0.5],[1,0.5]];portConstraint=eastwest;fontSize=14;sketch=1;hachureGap=4;jiggle=2;curveFitting=1;fontFamily=Architects Daughter;fontSource=https%3A%2F%2Ffonts.googleapis.com%2Fcss%3Ffamily%3DArchitects%2BDaughter;" vertex="1" parent="4oDnZL1CioS8mAldFl4V-63">
          <mxGeometry y="27" width="610.5" height="27" as="geometry" />
        </mxCell>
        <mxCell id="4oDnZL1CioS8mAldFl4V-69" value="Lectura" style="shape=partialRectangle;html=1;whiteSpace=wrap;connectable=0;strokeColor=inherit;overflow=hidden;fillColor=none;top=0;left=0;bottom=0;right=0;pointerEvents=1;fontSize=14;sketch=1;hachureGap=4;jiggle=2;curveFitting=1;fontFamily=Architects Daughter;fontSource=https%3A%2F%2Ffonts.googleapis.com%2Fcss%3Ffamily%3DArchitects%2BDaughter;" vertex="1" parent="4oDnZL1CioS8mAldFl4V-68">
          <mxGeometry width="67" height="27" as="geometry">
            <mxRectangle width="67" height="27" as="alternateBounds" />
          </mxGeometry>
        </mxCell>
        <mxCell id="4oDnZL1CioS8mAldFl4V-70" value="findAll" style="shape=partialRectangle;html=1;whiteSpace=wrap;connectable=0;strokeColor=inherit;overflow=hidden;fillColor=none;top=0;left=0;bottom=0;right=0;pointerEvents=1;fontSize=14;sketch=1;hachureGap=4;jiggle=2;curveFitting=1;fontFamily=Architects Daughter;fontSource=https%3A%2F%2Ffonts.googleapis.com%2Fcss%3Ffamily%3DArchitects%2BDaughter;" vertex="1" parent="4oDnZL1CioS8mAldFl4V-68">
          <mxGeometry x="67" width="107" height="27" as="geometry">
            <mxRectangle width="107" height="27" as="alternateBounds" />
          </mxGeometry>
        </mxCell>
        <mxCell id="4oDnZL1CioS8mAldFl4V-71" value="&amp;nbsp;Recupera todos los departamentos." style="shape=partialRectangle;html=1;whiteSpace=wrap;connectable=0;strokeColor=inherit;overflow=hidden;fillColor=none;top=0;left=0;bottom=0;right=0;pointerEvents=1;fontSize=14;sketch=1;hachureGap=4;jiggle=2;curveFitting=1;fontFamily=Architects Daughter;fontSource=https%3A%2F%2Ffonts.googleapis.com%2Fcss%3Ffamily%3DArchitects%2BDaughter;align=left;" vertex="1" parent="4oDnZL1CioS8mAldFl4V-68">
          <mxGeometry x="174" width="437" height="27" as="geometry">
            <mxRectangle width="437" height="27" as="alternateBounds" />
          </mxGeometry>
        </mxCell>
        <mxCell id="4oDnZL1CioS8mAldFl4V-72" value="" style="shape=tableRow;horizontal=0;startSize=0;swimlaneHead=0;swimlaneBody=0;strokeColor=inherit;top=0;left=0;bottom=0;right=0;collapsible=0;dropTarget=0;fillColor=none;points=[[0,0.5],[1,0.5]];portConstraint=eastwest;fontSize=14;sketch=1;hachureGap=4;jiggle=2;curveFitting=1;fontFamily=Architects Daughter;fontSource=https%3A%2F%2Ffonts.googleapis.com%2Fcss%3Ffamily%3DArchitects%2BDaughter;" vertex="1" parent="4oDnZL1CioS8mAldFl4V-63">
          <mxGeometry y="54" width="610.5" height="26" as="geometry" />
        </mxCell>
        <mxCell id="4oDnZL1CioS8mAldFl4V-73" value="Lectura" style="shape=partialRectangle;html=1;whiteSpace=wrap;connectable=0;strokeColor=inherit;overflow=hidden;fillColor=none;top=0;left=0;bottom=0;right=0;pointerEvents=1;fontSize=14;sketch=1;hachureGap=4;jiggle=2;curveFitting=1;fontFamily=Architects Daughter;fontSource=https%3A%2F%2Ffonts.googleapis.com%2Fcss%3Ffamily%3DArchitects%2BDaughter;" vertex="1" parent="4oDnZL1CioS8mAldFl4V-72">
          <mxGeometry width="67" height="26" as="geometry">
            <mxRectangle width="67" height="26" as="alternateBounds" />
          </mxGeometry>
        </mxCell>
        <mxCell id="4oDnZL1CioS8mAldFl4V-74" value="findByCode" style="shape=partialRectangle;html=1;whiteSpace=wrap;connectable=0;strokeColor=inherit;overflow=hidden;fillColor=none;top=0;left=0;bottom=0;right=0;pointerEvents=1;fontSize=14;sketch=1;hachureGap=4;jiggle=2;curveFitting=1;fontFamily=Architects Daughter;fontSource=https%3A%2F%2Ffonts.googleapis.com%2Fcss%3Ffamily%3DArchitects%2BDaughter;" vertex="1" parent="4oDnZL1CioS8mAldFl4V-72">
          <mxGeometry x="67" width="107" height="26" as="geometry">
            <mxRectangle width="107" height="26" as="alternateBounds" />
          </mxGeometry>
        </mxCell>
        <mxCell id="4oDnZL1CioS8mAldFl4V-75" value="&amp;nbsp;Recupera un departamento mediante su código&amp;nbsp;de departamento." style="shape=partialRectangle;html=1;whiteSpace=wrap;connectable=0;strokeColor=inherit;overflow=hidden;fillColor=none;top=0;left=0;bottom=0;right=0;pointerEvents=1;fontSize=14;sketch=1;hachureGap=4;jiggle=2;curveFitting=1;fontFamily=Architects Daughter;fontSource=https%3A%2F%2Ffonts.googleapis.com%2Fcss%3Ffamily%3DArchitects%2BDaughter;align=left;" vertex="1" parent="4oDnZL1CioS8mAldFl4V-72">
          <mxGeometry x="174" width="437" height="26" as="geometry">
            <mxRectangle width="437" height="26" as="alternateBounds" />
          </mxGeometry>
        </mxCell>
        <mxCell id="4oDnZL1CioS8mAldFl4V-76" value="" style="shape=table;startSize=0;container=1;collapsible=0;childLayout=tableLayout;fontSize=14;sketch=1;hachureGap=4;jiggle=2;curveFitting=1;fontFamily=Architects Daughter;fontSource=https%3A%2F%2Ffonts.googleapis.com%2Fcss%3Ffamily%3DArchitects%2BDaughter;fillColor=#b0e3e6;strokeColor=#0e8088;" vertex="1" parent="1">
          <mxGeometry x="-310" y="760" width="659.9999999999998" height="107.45999999999998" as="geometry" />
        </mxCell>
        <mxCell id="4oDnZL1CioS8mAldFl4V-77" value="" style="shape=tableRow;horizontal=0;startSize=0;swimlaneHead=0;swimlaneBody=0;strokeColor=inherit;top=0;left=0;bottom=0;right=0;collapsible=0;dropTarget=0;fillColor=none;points=[[0,0.5],[1,0.5]];portConstraint=eastwest;fontSize=14;sketch=1;hachureGap=4;jiggle=2;curveFitting=1;fontFamily=Architects Daughter;fontSource=https%3A%2F%2Ffonts.googleapis.com%2Fcss%3Ffamily%3DArchitects%2BDaughter;" vertex="1" parent="4oDnZL1CioS8mAldFl4V-76">
          <mxGeometry width="659.9999999999998" height="27" as="geometry" />
        </mxCell>
        <mxCell id="4oDnZL1CioS8mAldFl4V-78" value="&lt;b style=&quot;font-size: 14px;&quot;&gt;Tipo&lt;/b&gt;" style="shape=partialRectangle;html=1;whiteSpace=wrap;connectable=0;strokeColor=#0e8088;overflow=hidden;fillColor=#b0e3e6;top=0;left=0;bottom=0;right=0;pointerEvents=1;fontSize=14;sketch=1;hachureGap=4;jiggle=2;curveFitting=1;fontFamily=Architects Daughter;fontSource=https%3A%2F%2Ffonts.googleapis.com%2Fcss%3Ffamily%3DArchitects%2BDaughter;" vertex="1" parent="4oDnZL1CioS8mAldFl4V-77">
          <mxGeometry width="73" height="27" as="geometry">
            <mxRectangle width="73" height="27" as="alternateBounds" />
          </mxGeometry>
        </mxCell>
        <mxCell id="4oDnZL1CioS8mAldFl4V-79" value="&lt;b style=&quot;font-size: 14px;&quot;&gt;Operación&lt;/b&gt;" style="shape=partialRectangle;html=1;whiteSpace=wrap;connectable=0;strokeColor=#0e8088;overflow=hidden;fillColor=#b0e3e6;top=0;left=0;bottom=0;right=0;pointerEvents=1;fontSize=14;sketch=1;hachureGap=4;jiggle=2;curveFitting=1;fontFamily=Architects Daughter;fontSource=https%3A%2F%2Ffonts.googleapis.com%2Fcss%3Ffamily%3DArchitects%2BDaughter;" vertex="1" parent="4oDnZL1CioS8mAldFl4V-77">
          <mxGeometry x="73" width="157" height="27" as="geometry">
            <mxRectangle width="157" height="27" as="alternateBounds" />
          </mxGeometry>
        </mxCell>
        <mxCell id="4oDnZL1CioS8mAldFl4V-80" value="&lt;b style=&quot;font-size: 14px;&quot;&gt;Descripción&lt;/b&gt;" style="shape=partialRectangle;html=1;whiteSpace=wrap;connectable=0;strokeColor=#0e8088;overflow=hidden;fillColor=#b0e3e6;top=0;left=0;bottom=0;right=0;pointerEvents=1;fontSize=14;sketch=1;hachureGap=4;jiggle=2;curveFitting=1;fontFamily=Architects Daughter;fontSource=https%3A%2F%2Ffonts.googleapis.com%2Fcss%3Ffamily%3DArchitects%2BDaughter;" vertex="1" parent="4oDnZL1CioS8mAldFl4V-77">
          <mxGeometry x="230" width="430" height="27" as="geometry">
            <mxRectangle width="430" height="27" as="alternateBounds" />
          </mxGeometry>
        </mxCell>
        <mxCell id="4oDnZL1CioS8mAldFl4V-81" value="" style="shape=tableRow;horizontal=0;startSize=0;swimlaneHead=0;swimlaneBody=0;strokeColor=inherit;top=0;left=0;bottom=0;right=0;collapsible=0;dropTarget=0;fillColor=none;points=[[0,0.5],[1,0.5]];portConstraint=eastwest;fontSize=14;sketch=1;hachureGap=4;jiggle=2;curveFitting=1;fontFamily=Architects Daughter;fontSource=https%3A%2F%2Ffonts.googleapis.com%2Fcss%3Ffamily%3DArchitects%2BDaughter;" vertex="1" parent="4oDnZL1CioS8mAldFl4V-76">
          <mxGeometry y="27" width="659.9999999999998" height="27" as="geometry" />
        </mxCell>
        <mxCell id="4oDnZL1CioS8mAldFl4V-82" value="Lectura" style="shape=partialRectangle;html=1;whiteSpace=wrap;connectable=0;strokeColor=inherit;overflow=hidden;fillColor=none;top=0;left=0;bottom=0;right=0;pointerEvents=1;fontSize=14;sketch=1;hachureGap=4;jiggle=2;curveFitting=1;fontFamily=Architects Daughter;fontSource=https%3A%2F%2Ffonts.googleapis.com%2Fcss%3Ffamily%3DArchitects%2BDaughter;" vertex="1" parent="4oDnZL1CioS8mAldFl4V-81">
          <mxGeometry width="73" height="27" as="geometry">
            <mxRectangle width="73" height="27" as="alternateBounds" />
          </mxGeometry>
        </mxCell>
        <mxCell id="4oDnZL1CioS8mAldFl4V-83" value="findLatestEmployees" style="shape=partialRectangle;html=1;whiteSpace=wrap;connectable=0;strokeColor=inherit;overflow=hidden;fillColor=none;top=0;left=0;bottom=0;right=0;pointerEvents=1;fontSize=14;sketch=1;hachureGap=4;jiggle=2;curveFitting=1;fontFamily=Architects Daughter;fontSource=https%3A%2F%2Ffonts.googleapis.com%2Fcss%3Ffamily%3DArchitects%2BDaughter;" vertex="1" parent="4oDnZL1CioS8mAldFl4V-81">
          <mxGeometry x="73" width="157" height="27" as="geometry">
            <mxRectangle width="157" height="27" as="alternateBounds" />
          </mxGeometry>
        </mxCell>
        <mxCell id="4oDnZL1CioS8mAldFl4V-84" value="&amp;nbsp;Recupera los últimos X empleados que fueron contratados." style="shape=partialRectangle;html=1;whiteSpace=wrap;connectable=0;strokeColor=inherit;overflow=hidden;fillColor=none;top=0;left=0;bottom=0;right=0;pointerEvents=1;fontSize=14;sketch=1;hachureGap=4;jiggle=2;curveFitting=1;fontFamily=Architects Daughter;fontSource=https%3A%2F%2Ffonts.googleapis.com%2Fcss%3Ffamily%3DArchitects%2BDaughter;align=left;" vertex="1" parent="4oDnZL1CioS8mAldFl4V-81">
          <mxGeometry x="230" width="430" height="27" as="geometry">
            <mxRectangle width="430" height="27" as="alternateBounds" />
          </mxGeometry>
        </mxCell>
        <mxCell id="4oDnZL1CioS8mAldFl4V-85" value="" style="shape=tableRow;horizontal=0;startSize=0;swimlaneHead=0;swimlaneBody=0;strokeColor=inherit;top=0;left=0;bottom=0;right=0;collapsible=0;dropTarget=0;fillColor=none;points=[[0,0.5],[1,0.5]];portConstraint=eastwest;fontSize=14;sketch=1;hachureGap=4;jiggle=2;curveFitting=1;fontFamily=Architects Daughter;fontSource=https%3A%2F%2Ffonts.googleapis.com%2Fcss%3Ffamily%3DArchitects%2BDaughter;" vertex="1" parent="4oDnZL1CioS8mAldFl4V-76">
          <mxGeometry y="54" width="659.9999999999998" height="26" as="geometry" />
        </mxCell>
        <mxCell id="4oDnZL1CioS8mAldFl4V-86" value="Lectura" style="shape=partialRectangle;html=1;whiteSpace=wrap;connectable=0;strokeColor=inherit;overflow=hidden;fillColor=none;top=0;left=0;bottom=0;right=0;pointerEvents=1;fontSize=14;sketch=1;hachureGap=4;jiggle=2;curveFitting=1;fontFamily=Architects Daughter;fontSource=https%3A%2F%2Ffonts.googleapis.com%2Fcss%3Ffamily%3DArchitects%2BDaughter;" vertex="1" parent="4oDnZL1CioS8mAldFl4V-85">
          <mxGeometry width="73" height="26" as="geometry">
            <mxRectangle width="73" height="26" as="alternateBounds" />
          </mxGeometry>
        </mxCell>
        <mxCell id="4oDnZL1CioS8mAldFl4V-87" value="findByCode" style="shape=partialRectangle;html=1;whiteSpace=wrap;connectable=0;strokeColor=inherit;overflow=hidden;fillColor=none;top=0;left=0;bottom=0;right=0;pointerEvents=1;fontSize=14;sketch=1;hachureGap=4;jiggle=2;curveFitting=1;fontFamily=Architects Daughter;fontSource=https%3A%2F%2Ffonts.googleapis.com%2Fcss%3Ffamily%3DArchitects%2BDaughter;" vertex="1" parent="4oDnZL1CioS8mAldFl4V-85">
          <mxGeometry x="73" width="157" height="26" as="geometry">
            <mxRectangle width="157" height="26" as="alternateBounds" />
          </mxGeometry>
        </mxCell>
        <mxCell id="4oDnZL1CioS8mAldFl4V-88" value="&amp;nbsp;Recupera un empleado mediante su código de empleado." style="shape=partialRectangle;html=1;whiteSpace=wrap;connectable=0;strokeColor=inherit;overflow=hidden;fillColor=none;top=0;left=0;bottom=0;right=0;pointerEvents=1;fontSize=14;sketch=1;hachureGap=4;jiggle=2;curveFitting=1;fontFamily=Architects Daughter;fontSource=https%3A%2F%2Ffonts.googleapis.com%2Fcss%3Ffamily%3DArchitects%2BDaughter;align=left;" vertex="1" parent="4oDnZL1CioS8mAldFl4V-85">
          <mxGeometry x="230" width="430" height="26" as="geometry">
            <mxRectangle width="430" height="26" as="alternateBounds" />
          </mxGeometry>
        </mxCell>
        <mxCell id="4oDnZL1CioS8mAldFl4V-117" value="" style="shape=tableRow;horizontal=0;startSize=0;swimlaneHead=0;swimlaneBody=0;strokeColor=inherit;top=0;left=0;bottom=0;right=0;collapsible=0;dropTarget=0;fillColor=none;points=[[0,0.5],[1,0.5]];portConstraint=eastwest;fontSize=14;sketch=1;hachureGap=4;jiggle=2;curveFitting=1;fontFamily=Architects Daughter;fontSource=https%3A%2F%2Ffonts.googleapis.com%2Fcss%3Ffamily%3DArchitects%2BDaughter;" vertex="1" parent="4oDnZL1CioS8mAldFl4V-76">
          <mxGeometry y="80" width="659.9999999999998" height="27" as="geometry" />
        </mxCell>
        <mxCell id="4oDnZL1CioS8mAldFl4V-118" value="Lectura" style="shape=partialRectangle;html=1;whiteSpace=wrap;connectable=0;strokeColor=inherit;overflow=hidden;fillColor=none;top=0;left=0;bottom=0;right=0;pointerEvents=1;fontSize=14;sketch=1;hachureGap=4;jiggle=2;curveFitting=1;fontFamily=Architects Daughter;fontSource=https%3A%2F%2Ffonts.googleapis.com%2Fcss%3Ffamily%3DArchitects%2BDaughter;" vertex="1" parent="4oDnZL1CioS8mAldFl4V-117">
          <mxGeometry width="73" height="27" as="geometry">
            <mxRectangle width="73" height="27" as="alternateBounds" />
          </mxGeometry>
        </mxCell>
        <mxCell id="4oDnZL1CioS8mAldFl4V-119" value="findEmployeeLocation" style="shape=partialRectangle;html=1;whiteSpace=wrap;connectable=0;strokeColor=inherit;overflow=hidden;fillColor=none;top=0;left=0;bottom=0;right=0;pointerEvents=1;fontSize=14;sketch=1;hachureGap=4;jiggle=2;curveFitting=1;fontFamily=Architects Daughter;fontSource=https%3A%2F%2Ffonts.googleapis.com%2Fcss%3Ffamily%3DArchitects%2BDaughter;" vertex="1" parent="4oDnZL1CioS8mAldFl4V-117">
          <mxGeometry x="73" width="157" height="27" as="geometry">
            <mxRectangle width="157" height="27" as="alternateBounds" />
          </mxGeometry>
        </mxCell>
        <mxCell id="4oDnZL1CioS8mAldFl4V-120" value="&amp;nbsp;Recupera un empleado y el departamento al que pertenece.&amp;nbsp;" style="shape=partialRectangle;html=1;whiteSpace=wrap;connectable=0;strokeColor=inherit;overflow=hidden;fillColor=none;top=0;left=0;bottom=0;right=0;pointerEvents=1;fontSize=14;sketch=1;hachureGap=4;jiggle=2;curveFitting=1;fontFamily=Architects Daughter;fontSource=https%3A%2F%2Ffonts.googleapis.com%2Fcss%3Ffamily%3DArchitects%2BDaughter;align=left;" vertex="1" parent="4oDnZL1CioS8mAldFl4V-117">
          <mxGeometry x="230" width="430" height="27" as="geometry">
            <mxRectangle width="430" height="27" as="alternateBounds" />
          </mxGeometry>
        </mxCell>
        <mxCell id="shVfFvqYW57IVsybGuDz-2" value="&lt;font style=&quot;font-size: 16px;&quot;&gt;RMI&lt;/font&gt;" style="edgeLabel;html=1;align=center;verticalAlign=middle;resizable=0;points=[];sketch=1;hachureGap=4;jiggle=2;curveFitting=1;fontFamily=Architects Daughter;fontSource=https%3A%2F%2Ffonts.googleapis.com%2Fcss%3Ffamily%3DArchitects%2BDaughter;labelBackgroundColor=none;fontColor=#ae4132;fontStyle=1;fontSize=14;" vertex="1" connectable="0" parent="1">
          <mxGeometry x="493.00238744047175" y="735.0046387437485" as="geometry" />
        </mxCell>
      </root>
    </mxGraphModel>
  </diagram>
</mxfile>
